<!DOCTYPE svg PUBLIC "-//W3C//DTD SVG 20010904//EN" "http://www.w3.org/TR/2001/REC-SVG-20010904/DTD/svg10.dtd">
<svg version="1.0" xmlns="http://www.w3.org/2000/svg" width="505px" height="288px" viewBox="0 0 5050 2880" preserveAspectRatio="xMidYMid meet">
<g id="layer101" fill="#151515" stroke="none">
 <path d="M3225 2733 l6 -40 -143 -27 c-79 -15 -174 -35 -212 -44 -69 -16 -69 -16 -84 6 -19 29 -32 28 -32 -3 0 -28 -4 -29 -188 -67 -107 -22 -114 -22 -123 -5 -14 24 -27 21 -31 -5 -3 -20 -15 -25 -113 -45 -183 -37 -435 -92 -585 -128 -228 -55 -299 -93 -161 -85 24 1 46 -3 50 -8 3 -6 4 -33 3 -61 -4 -48 -6 -52 -33 -58 -36 -7 -33 -26 6 -33 23 -4 31 -12 36 -37 3 -18 4 -35 1 -38 -3 -3 -30 -5 -59 -5 -67 0 -61 -14 12 -31 l54 -12 21 -66 c12 -36 24 -72 26 -78 4 -10 -16 -13 -82 -13 -54 0 -84 -4 -78 -9 20 -20 392 -99 879 -186 17 -3 91 -17 165 -30 74 -14 176 -32 225 -41 87 -15 139 -25 290 -57 39 -9 124 -25 190 -37 66 -12 190 -34 275 -50 85 -15 234 -42 330 -60 96 -17 209 -38 250 -46 186 -35 248 -46 440 -78 264 -44 318 -51 305 -38 -17 18 -335 96 -860 211 -176 38 -363 79 -415 91 -172 40 -462 99 -635 130 -246 45 -642 110 -663 110 -14 0 -30 22 -56 76 -21 41 -36 77 -34 78 1 2 66 -3 143 -9 77 -7 221 -16 319 -20 l180 -7 35 -34 c96 -91 251 -181 251 -146 0 9 -37 59 -104 137 -14 17 -25 34 -26 39 0 5 79 7 186 3 168 -4 189 -7 213 -25 161 -126 406 -282 443 -282 43 0 15 34 -141 170 -72 62 -131 117 -131 122 0 4 104 8 231 8 l231 0 114 -85 c106 -80 265 -190 414 -290 86 -57 217 -121 227 -111 16 16 -210 211 -470 406 -47 36 -86 71 -87 78 0 9 40 12 170 12 97 0 170 4 170 9 0 13 -39 19 -175 26 -66 3 -153 8 -193 11 l-73 6 -107 86 c-130 104 -274 227 -402 341 -110 98 -320 303 -320 312 0 3 10 11 23 17 20 10 19 11 -15 11 -31 1 -40 6 -53 30 -24 48 -38 50 -30 4z m49 -104 c21 -36 97 -129 178 -218 32 -35 56 -66 54 -68 -3 -3 -73 -11 -158 -19 -84 -7 -184 -16 -223 -20 l-70 -6 -84 92 c-109 119 -125 140 -115 149 5 4 68 24 139 44 72 20 155 45 185 56 73 26 73 26 94 -10z m-462 -141 c9 -18 41 -69 72 -112 32 -43 54 -82 49 -87 -4 -4 -71 -13 -147 -20 l-139 -13 -30 35 c-43 50 -108 151 -101 158 7 8 234 69 260 70 14 1 25 -10 36 -31z m-325 -145 c46 -95 45 -102 -17 -103 -19 -1 -125 -7 -235 -14 -126 -9 -204 -10 -212 -4 -11 9 -63 102 -63 112 0 3 17 8 38 12 35 6 297 58 372 74 72 16 72 16 117 -77z m-540 -78 l3 -65 -53 0 -53 0 -19 47 c-11 26 -20 52 -20 58 0 11 48 22 105 24 l35 1 2 -65z m1696 -51 c56 -53 145 -135 199 -183 55 -47 93 -87 86 -89 -7 -1 -119 1 -249 5 l-236 8 -59 50 c-126 105 -245 218 -237 225 4 4 89 22 188 39 99 18 182 34 184 37 11 11 31 -3 124 -92z m-1881 34 c2 -29 4 -54 3 -56 -1 -1 -19 -3 -39 -5 -36 -2 -38 0 -57 48 -22 57 -16 65 48 65 l41 0 4 -52z m1373 -158 c65 -65 117 -121 115 -123 -3 -2 -84 -1 -180 2 l-175 6 -67 70 c-36 39 -76 82 -88 97 l-21 27 23 6 c28 7 214 32 248 34 20 1 52 -26 145 -119z m-492 6 c25 -35 53 -69 62 -76 8 -7 15 -19 15 -26 0 -11 -18 -14 -77 -14 -102 0 -500 27 -512 34 -15 10 -62 96 -57 105 3 4 85 11 183 15 98 4 205 11 238 15 103 14 97 16 148 -53z m-860 17 c3 -5 8 -23 12 -40 6 -32 6 -33 -29 -33 -39 0 -41 2 -51 48 -6 31 -6 32 29 32 19 0 37 -3 39 -7z m210 -36 c23 -56 22 -57 -17 -57 -50 0 -65 9 -81 47 -21 51 -20 53 33 53 46 0 47 -1 65 -43z m-171 -113 c7 -5 78 -132 78 -141 0 -5 -68 1 -136 13 l-31 6 3 66 c2 37 4 69 4 71 0 4 72 -9 82 -15z m196 -24 c26 0 40 -8 60 -32 15 -17 45 -51 66 -75 21 -24 37 -46 34 -49 -5 -5 -220 24 -226 31 -2 2 -6 34 -8 71 -5 65 -5 66 18 60 13 -3 38 -6 56 -6z"/>
 <path d="M615 2543 c-95 -13 -177 -56 -242 -126 -137 -148 -156 -376 -46 -543 48 -74 153 -169 153 -139 0 2 -14 20 -31 40 l-31 35 27 114 c43 186 102 266 248 334 78 37 90 48 62 59 -21 8 -130 -14 -182 -37 -109 -48 -193 -172 -201 -297 -2 -40 -8 -73 -13 -73 -23 0 -43 78 -43 175 -1 95 1 104 35 175 60 123 128 178 247 200 81 14 129 5 171 -34 55 -51 128 -170 151 -249 12 -39 23 -78 25 -84 7 -20 23 -15 31 9 21 68 -1 201 -46 272 -16 25 -26 47 -22 49 12 8 115 -23 178 -52 l62 -29 13 -73 c7 -41 13 -119 13 -174 l1 -100 -27 -3 c-14 -2 -60 8 -102 22 -42 14 -79 26 -81 26 -3 0 -5 -12 -5 -26 0 -38 59 -90 122 -109 63 -18 123 -19 206 -1 l62 13 0 -26 c0 -34 -49 -117 -93 -159 l-35 -34 -83 17 c-100 19 -170 41 -224 68 -57 28 -135 96 -135 116 0 11 30 39 75 71 41 29 75 57 75 62 0 4 -17 8 -37 8 -53 0 -153 -50 -213 -106 -66 -61 -93 -119 -94 -200 -1 -35 -5 -64 -9 -64 -5 0 -24 12 -43 26 -26 20 -34 23 -34 11 0 -9 44 -59 97 -112 76 -74 110 -100 153 -116 72 -27 164 -35 231 -19 53 13 168 63 178 78 4 4 35 28 71 54 79 56 151 130 181 189 91 179 52 379 -108 545 -102 106 -193 150 -389 188 -133 25 -247 36 -299 29z m703 -394 c32 -63 56 -155 45 -173 -5 -7 -121 -1 -130 7 -1 2 7 23 18 47 17 35 20 57 17 117 -2 47 0 72 7 70 5 -2 25 -32 43 -68z m-574 -337 c20 -39 90 -101 140 -123 46 -20 149 -39 214 -39 23 0 42 -4 42 -9 0 -11 -82 -62 -130 -81 -19 -7 -41 -18 -48 -23 -6 -5 -46 -9 -88 -9 -68 1 -83 5 -147 40 l-72 39 3 49 c4 71 43 184 63 184 5 0 15 -13 23 -28z"/>
 <path d="M2120 1625 c0 -3 20 -74 45 -159 24 -84 49 -176 55 -204 6 -28 17 -55 23 -60 18 -13 130 -33 139 -24 4 4 14 41 23 82 8 41 18 81 21 89 3 9 28 -24 65 -85 34 -54 67 -106 75 -114 17 -17 132 -41 140 -29 2 4 -5 59 -16 121 -11 62 -25 151 -30 197 -5 47 -14 89 -19 94 -13 13 -124 38 -133 29 -4 -4 0 -41 8 -82 8 -41 14 -81 14 -87 0 -30 -24 -8 -68 61 -25 41 -57 80 -70 85 -31 15 -62 14 -66 -1 -2 -7 -12 -44 -22 -83 l-18 -70 -13 34 c-8 19 -22 70 -31 114 -14 66 -21 81 -40 88 -25 10 -82 12 -82 4z"/>
 <path d="M2709 1499 c-13 -24 -9 -62 18 -189 l18 -84 58 -12 c31 -6 59 -8 62 -4 2 4 -5 53 -17 108 -22 104 -20 124 10 106 15 -10 36 -84 56 -195 6 -34 8 -36 64 -46 31 -6 60 -8 64 -4 4 3 -4 56 -17 116 -14 60 -25 124 -25 142 0 40 -7 44 -83 47 -35 1 -76 10 -94 19 -46 25 -99 22 -114 -4z"/>
 <path d="M3040 1454 c0 -8 79 -388 85 -410 4 -12 113 -30 123 -19 3 3 -8 70 -25 148 -18 78 -38 170 -44 204 -8 40 -19 65 -28 67 -38 11 -111 18 -111 10z"/>
 <path d="M3213 1414 c15 -49 77 -346 77 -366 0 -13 4 -28 8 -34 9 -13 121 -34 127 -24 3 4 -4 47 -15 96 -11 49 -31 140 -45 203 -23 110 -33 130 -65 131 -8 0 -32 3 -54 7 -34 5 -38 4 -33 -13z"/>
 <path d="M3383 1378 c5 -24 75 -346 82 -384 4 -18 14 -22 66 -28 34 -4 63 -5 65 -3 3 2 -1 28 -7 56 -6 29 -9 54 -7 56 2 2 24 -3 50 -13 63 -22 98 -8 98 42 0 30 -37 237 -43 241 -7 6 -121 24 -125 21 -2 -3 5 -45 17 -94 22 -94 26 -132 14 -132 -24 1 -36 28 -57 126 l-22 109 -45 12 c-73 19 -92 17 -86 -9z"/>
 <path d="M3775 1295 c-19 -18 -25 -35 -25 -70 0 -118 112 -225 234 -225 36 0 48 5 65 26 12 15 21 39 21 55 0 31 -20 48 -113 93 -68 34 -75 42 -53 64 16 16 20 15 58 -6 36 -22 42 -22 56 -8 21 20 6 37 -61 71 -70 35 -148 35 -182 0z m142 -160 c24 -17 36 -52 20 -62 -12 -7 -57 41 -57 63 0 18 10 18 37 -1z"/>
 <path d="M4060 1273 c0 -4 9 -44 19 -88 10 -44 24 -108 31 -143 12 -57 16 -64 41 -69 35 -7 37 -15 7 -28 -31 -14 -34 -42 -7 -71 46 -49 129 -52 129 -5 0 24 -37 71 -56 71 -8 0 -14 5 -14 10 0 6 9 10 20 10 11 0 20 3 20 8 0 4 -12 61 -26 127 -14 66 -28 130 -30 141 -3 16 -14 23 -41 28 -21 4 -50 9 -65 12 -16 3 -28 2 -28 -3z"/>
 <path d="M976 1248 c-3 -12 -12 -86 -21 -163 -8 -77 -18 -156 -21 -176 l-5 -36 65 -13 c91 -17 96 -14 96 62 0 80 10 140 22 136 6 -2 38 -58 72 -123 l61 -120 48 -9 c26 -4 50 -6 53 -3 3 3 -6 22 -19 44 -51 78 -197 356 -197 375 0 22 -25 33 -97 43 -49 6 -52 5 -57 -17z"/>
 <path d="M4224 1233 c11 -36 56 -247 56 -264 0 -21 23 -30 88 -33 26 -1 69 -11 96 -21 38 -15 54 -16 77 -8 23 9 36 7 75 -13 52 -26 93 -31 112 -12 17 17 14 69 -11 183 l-22 100 -58 14 c-32 7 -61 11 -64 7 -3 -3 4 -51 16 -107 12 -57 18 -106 14 -110 -19 -19 -34 13 -56 116 l-23 110 -45 12 c-67 18 -91 16 -85 -4 26 -87 47 -196 40 -203 -20 -20 -36 12 -58 116 l-22 109 -45 12 c-67 18 -91 16 -85 -4z"/>
 <path d="M1314 1209 c-64 -18 -78 -102 -34 -189 54 -106 204 -168 277 -114 57 43 37 171 -37 238 -63 57 -145 83 -206 65z m121 -111 c7 -18 16 -54 20 -80 6 -41 5 -48 -9 -48 -20 0 -44 52 -53 115 -5 38 -3 45 11 45 10 0 23 -14 31 -32z"/>
 <path d="M2796 1165 c-21 -21 -7 -55 32 -78 42 -25 72 -15 72 24 0 22 -8 34 -32 49 -40 24 -52 25 -72 5z"/>
 <path d="M1625 1019 c18 -79 38 -174 45 -211 8 -37 19 -69 27 -72 30 -12 113 -18 113 -9 0 6 -9 52 -21 104 -11 52 -30 142 -42 201 -13 63 -28 110 -35 113 -8 3 -37 8 -67 11 l-52 6 32 -143z"/>
 <path d="M2225 1123 c8 -43 18 -53 57 -53 47 0 53 -27 33 -165 -9 -68 -15 -131 -13 -141 2 -13 19 -21 63 -30 33 -7 63 -10 67 -8 5 3 8 31 8 62 1 51 2 55 15 38 7 -10 22 -40 31 -67 17 -46 20 -49 67 -59 28 -6 53 -8 56 -5 6 7 -91 204 -147 297 -61 103 -144 167 -216 168 -27 0 -28 -1 -21 -37z"/>
 <path d="M2952 1141 c-23 -14 -9 -54 27 -78 40 -27 41 -27 66 -10 49 36 -41 121 -93 88z"/>
 <path d="M1770 1128 c0 -3 18 -86 40 -184 22 -98 40 -191 40 -205 0 -30 9 -36 80 -45 48 -6 50 -6 50 17 0 13 -15 92 -34 174 -18 83 -36 166 -40 187 -4 20 -13 39 -21 42 -22 8 -115 19 -115 14z"/>
 <path d="M2009 1079 c-52 -19 -67 -94 -34 -172 44 -106 208 -183 275 -129 13 10 23 33 27 59 l5 42 -91 45 c-51 26 -91 53 -91 60 0 26 39 29 77 6 36 -21 38 -21 50 -3 12 16 11 21 -14 41 -33 26 -124 62 -156 61 -12 0 -34 -5 -48 -10z m135 -202 c18 -24 19 -29 6 -37 -11 -7 -21 -3 -37 16 -13 14 -23 32 -23 40 0 23 30 13 54 -19z"/>
 <path d="M2574 977 c-2 -7 2 -31 9 -52 7 -22 29 -113 47 -201 l34 -161 60 -11 c33 -7 62 -10 64 -8 2 2 -1 28 -6 57 -6 30 -8 56 -6 58 2 2 15 -1 29 -7 41 -19 74 -14 102 14 23 23 25 31 20 80 -3 30 -2 54 2 54 4 0 19 -13 34 -28 15 -16 54 -41 87 -57 33 -16 60 -32 60 -37 0 -20 -33 -18 -75 5 -50 28 -58 24 -48 -23 7 -40 46 -58 138 -67 51 -5 70 -2 91 12 26 17 27 19 20 94 -4 42 -10 99 -14 126 l-7 50 -75 12 c-41 6 -96 17 -122 24 -40 10 -50 10 -72 -5 -18 -11 -26 -25 -26 -46 0 -41 -12 -38 -44 10 -14 22 -45 52 -68 67 -35 23 -53 28 -110 29 -38 0 -74 6 -80 12 -16 16 -37 15 -44 -1z m196 -119 c11 -24 20 -62 20 -86 0 -36 -3 -43 -17 -40 -18 3 -50 95 -52 146 -2 37 28 25 49 -20z m320 -37 c13 -25 13 -61 1 -61 -14 0 -41 41 -41 62 0 24 27 23 40 -1z"/>
 <path d="M3250 859 c0 -7 6 -38 14 -68 27 -104 66 -290 66 -316 0 -17 7 -28 23 -34 37 -13 105 -22 111 -13 3 4 -2 35 -9 68 -13 52 -53 237 -70 320 -5 28 -11 32 -48 38 -23 3 -52 9 -64 12 -16 4 -23 2 -23 -7z"/>
 <path d="M3429 833 c-2 -11 -3 -3 33 -166 17 -78 35 -168 41 -199 10 -62 4 -57 101 -74 l39 -7 -7 39 c-4 22 -19 91 -33 154 -14 63 -31 142 -37 175 l-11 59 -44 8 c-23 4 -52 10 -62 13 -10 4 -20 3 -20 -2z"/>
 <path d="M3664 781 c-141 -61 27 -321 206 -321 l46 0 -4 35 c-4 35 -9 39 -49 35 -56 -4 -113 60 -113 128 0 45 22 58 70 42 32 -10 42 -11 55 0 19 16 14 32 81 -285 9 -44 19 -83 23 -87 3 -3 32 -9 64 -13 l58 -7 -6 38 c-4 22 -20 93 -35 159 -16 66 -31 141 -35 167 -4 26 -13 53 -21 59 -8 6 -45 13 -83 14 -39 2 -82 10 -101 20 -38 20 -126 29 -156 16z"/>
 <path d="M4090 700 c-25 -25 -24 -39 4 -168 13 -62 28 -107 36 -112 8 -4 36 -11 63 -14 55 -8 54 -14 27 108 -24 110 -24 106 0 106 25 0 32 -17 56 -138 12 -63 23 -93 34 -96 38 -11 110 -17 110 -10 0 5 -13 72 -29 149 l-28 140 -49 12 c-27 7 -56 10 -65 8 -9 -3 -36 4 -60 15 -56 25 -74 25 -99 0z"/>
 <path d="M4406 652 c-3 -5 3 -40 13 -78 11 -38 29 -118 41 -179 35 -170 29 -158 91 -171 30 -6 58 -8 63 -3 5 4 4 28 -3 55 -7 25 -9 49 -6 52 2 3 16 0 30 -6 41 -19 74 -14 102 14 23 23 25 31 20 80 -13 130 -129 236 -241 221 -27 -4 -47 -1 -60 9 -22 16 -42 18 -50 6z m193 -117 c8 -17 17 -54 19 -83 4 -49 3 -54 -14 -50 -14 2 -23 20 -36 68 -9 36 -16 73 -17 83 -2 29 32 16 48 -18z"/>
 </g>

</svg>