<?xml version="1.0" encoding="UTF-8" standalone="no"?>
<!DOCTYPE svg PUBLIC "-//W3C//DTD SVG 1.1//EN" "http://www.w3.org/Graphics/SVG/1.1/DTD/svg11.dtd">
<svg width="100%" height="100%" viewBox="0 0 2363 730" version="1.1" xmlns="http://www.w3.org/2000/svg" xmlns:xlink="http://www.w3.org/1999/xlink" xml:space="preserve" xmlns:serif="http://www.serif.com/" style="fill-rule:evenodd;clip-rule:evenodd;stroke-miterlimit:2;">
    <g transform="matrix(4.16667,0,0,4.16667,0,0)">
        <path d="M252.055,164.488L252.055,127.961L254.812,127.961L254.812,146.815C255.661,145.48 256.702,144.477 257.935,143.81C259.168,143.143 260.584,142.81 262.188,142.81C264.561,142.81 266.406,143.468 267.727,144.788C269.046,146.108 269.706,147.947 269.706,150.302L269.706,164.488L266.759,164.488L266.759,151.598C266.759,149.509 266.324,147.959 265.452,146.945C264.58,145.931 263.232,145.424 261.411,145.424C259.196,145.424 257.565,146.082 256.521,147.392C255.476,148.704 254.955,150.766 254.955,153.579L254.955,164.488L252.055,164.488Z" style="fill:rgb(147,149,152);fill-rule:nonzero;"/>
        <path d="M291.714,151.647C291.574,149.729 290.938,148.245 289.807,147.192C288.675,146.14 287.145,145.614 285.213,145.614C283.452,145.614 281.979,146.164 280.793,147.263C279.607,148.363 278.918,149.823 278.731,151.647L291.714,151.647ZM295.156,154.121L278.542,154.121C278.62,156.821 279.296,158.943 280.568,160.483C281.842,162.021 283.546,162.792 285.682,162.792C287.223,162.792 288.572,162.376 289.736,161.542C290.898,160.711 291.863,159.454 292.635,157.773L295.298,159.233C294.229,161.355 292.92,162.914 291.374,163.911C289.826,164.908 287.929,165.409 285.682,165.409C282.619,165.409 280.14,164.382 278.248,162.333C276.354,160.283 275.408,157.592 275.408,154.261C275.408,150.837 276.347,148.073 278.224,145.966C280.101,143.861 282.557,142.81 285.589,142.81C288.479,142.81 290.797,143.779 292.539,145.719C294.284,147.659 295.156,150.247 295.156,153.484L295.156,154.121Z" style="fill:rgb(147,149,152);fill-rule:nonzero;"/>
        <path d="M301.377,164.488L301.377,143.587L304.368,143.587L304.368,164.488L301.377,164.488ZM300.646,135.433C300.646,134.821 300.864,134.299 301.306,133.866C301.746,133.434 302.273,133.217 302.886,133.217C303.498,133.217 304.027,133.434 304.476,133.866C304.922,134.299 305.146,134.821 305.146,135.433C305.146,136.062 304.931,136.586 304.5,137.01C304.066,137.435 303.528,137.649 302.886,137.649C302.256,137.649 301.727,137.435 301.294,137.01C300.862,136.586 300.646,136.062 300.646,135.433Z" style="fill:rgb(147,149,152);fill-rule:nonzero;"/>
        <path d="M308.965,164.488L320.63,146.204L309.766,146.204L309.766,143.587L325.648,143.587L314.079,161.874L325.979,161.874L325.979,164.488L308.965,164.488Z" style="fill:rgb(147,149,152);fill-rule:nonzero;"/>
        <path d="M333.567,143.587L333.567,154.025C333.567,157.2 334.019,159.438 334.922,160.741C335.826,162.046 337.354,162.698 339.506,162.698C341.642,162.698 343.174,162.039 344.102,160.718C345.027,159.399 345.49,157.169 345.49,154.025L345.49,143.587L348.366,143.587L348.366,155.511C348.366,158.764 347.619,161.225 346.128,162.898C344.634,164.573 342.442,165.409 339.554,165.409C336.646,165.409 334.438,164.573 332.931,162.898C331.422,161.225 330.669,158.764 330.669,155.511L330.669,143.587L333.567,143.587Z" style="fill:rgb(147,149,152);fill-rule:nonzero;"/>
        <path d="M356.096,164.488L356.096,143.587L358.853,143.587L358.853,146.815C359.702,145.48 360.742,144.477 361.975,143.81C363.21,143.143 364.626,142.81 366.229,142.81C368.603,142.81 370.447,143.468 371.769,144.788C373.087,146.108 373.747,147.947 373.747,150.302L373.747,164.488L370.801,164.488L370.801,151.598C370.801,149.509 370.365,147.959 369.493,146.945C368.623,145.931 367.274,145.424 365.453,145.424C363.234,145.424 361.606,146.082 360.562,147.392C359.517,148.704 358.994,150.766 358.994,153.579L358.994,164.488L356.096,164.488Z" style="fill:rgb(147,149,152);fill-rule:nonzero;"/>
        <path d="M389.63,145.472C387.462,145.472 385.754,146.245 384.504,147.792C383.255,149.339 382.63,151.464 382.63,154.167C382.63,156.854 383.224,158.949 384.41,160.447C385.597,161.948 387.242,162.698 389.347,162.698C391.578,162.698 393.365,161.905 394.708,160.318C396.052,158.73 396.725,156.594 396.725,153.909C396.725,151.269 396.095,149.203 394.839,147.711C393.581,146.218 391.844,145.472 389.63,145.472ZM399.621,143.587L399.621,160.859C399.621,163.609 399.547,165.707 399.397,167.152C399.249,168.597 399.001,169.673 398.655,170.38C397.933,171.937 396.824,173.094 395.334,173.857C393.841,174.619 391.954,175 389.678,175C386.896,175 384.731,174.461 383.185,173.384C381.638,172.31 380.699,170.679 380.369,168.497L383.997,168.497C384.234,169.784 384.851,170.759 385.848,171.418C386.847,172.078 388.2,172.408 389.913,172.408C391.201,172.408 392.359,172.18 393.39,171.724C394.417,171.269 395.191,170.64 395.71,169.841C396.056,169.32 396.304,168.719 396.452,168.036C396.602,167.352 396.677,166.294 396.677,164.867L396.677,160.625C396.031,162.117 395.046,163.287 393.719,164.135C392.391,164.984 390.87,165.409 389.158,165.409C386.221,165.409 383.875,164.385 382.125,162.343C380.372,160.302 379.497,157.561 379.497,154.121C379.497,150.711 380.393,147.973 382.184,145.908C383.975,143.842 386.346,142.81 389.3,142.81C390.949,142.81 392.446,143.237 393.79,144.093C395.133,144.951 396.095,146.085 396.677,147.499L396.677,143.587L399.621,143.587Z" style="fill:rgb(147,149,152);fill-rule:nonzero;"/>
        <path d="M428.154,153.199C426.355,153.199 424.868,152.581 423.608,151.307C422.348,150.031 421.735,148.535 421.735,146.733C421.735,144.931 422.354,143.444 423.627,142.187C424.901,140.927 426.397,140.315 428.201,140.315C429.988,140.315 431.473,140.929 432.738,142.195C434.005,143.463 434.62,144.947 434.62,146.733C434.62,148.519 433.997,150.01 432.715,151.293C431.43,152.576 429.938,153.199 428.154,153.199Z" style="fill:rgb(255,221,0);fill-rule:nonzero;"/>
        <path d="M428.201,139.831C426.282,139.831 424.645,140.5 423.287,141.842C421.93,143.183 421.251,144.813 421.251,146.733C421.251,148.652 421.923,150.29 423.265,151.647C424.605,153.002 426.235,153.683 428.154,153.683C430.058,153.683 431.689,153 433.057,151.635C434.422,150.27 435.104,148.636 435.104,146.733C435.104,144.831 434.429,143.203 433.08,141.853C431.731,140.504 430.105,139.831 428.201,139.831ZM428.201,140.798C429.854,140.798 431.226,141.367 432.396,142.537C433.567,143.709 434.137,145.083 434.137,146.733C434.137,148.384 433.56,149.763 432.373,150.951C431.183,152.138 429.803,152.715 428.154,152.715C426.491,152.715 425.117,152.143 423.953,150.966C422.786,149.786 422.219,148.401 422.219,146.733C422.219,145.068 422.791,143.693 423.968,142.531C425.146,141.365 426.531,140.798 428.201,140.798Z" style="fill:rgb(109,111,113);fill-rule:nonzero;"/>
        <path d="M472.289,154.261C472.289,151.527 471.65,149.379 470.381,147.816C469.106,146.252 467.381,145.472 465.195,145.472C463.012,145.472 461.299,146.208 460.058,147.675C458.817,149.144 458.196,151.159 458.196,153.72C458.196,156.516 458.828,158.711 460.096,160.306C461.357,161.9 463.091,162.698 465.291,162.698C467.535,162.698 469.264,161.971 470.474,160.517C471.685,159.065 472.289,156.98 472.289,154.261ZM458.245,164.488L455.345,164.488L455.345,127.961L458.245,127.961L458.245,147.404C458.95,145.896 459.944,144.752 461.225,143.974C462.505,143.198 464.033,142.81 465.809,142.81C468.667,142.81 471,143.865 472.808,145.979C474.614,148.09 475.516,150.822 475.516,154.167C475.516,157.544 474.603,160.262 472.771,162.322C470.942,164.378 468.525,165.409 465.525,165.409C463.844,165.409 462.383,165.008 461.143,164.207C459.9,163.404 458.935,162.226 458.245,160.671L458.245,164.488Z" style="fill:rgb(147,149,152);fill-rule:nonzero;"/>
        <path d="M482.798,154.261C482.798,156.964 483.407,159.045 484.624,160.506C485.842,161.966 487.582,162.698 489.844,162.698C492.043,162.698 493.775,161.9 495.041,160.306C496.306,158.711 496.938,156.516 496.938,153.72C496.938,151.159 496.31,149.144 495.053,147.675C493.796,146.208 492.075,145.472 489.89,145.472C487.707,145.472 485.979,146.252 484.707,147.816C483.435,149.379 482.798,151.527 482.798,154.261ZM496.891,164.488L496.891,160.671C496.198,162.211 495.229,163.386 493.981,164.194C492.731,165.003 491.259,165.409 489.563,165.409C486.56,165.409 484.146,164.378 482.316,162.322C480.484,160.262 479.57,157.544 479.57,154.167C479.57,150.822 480.474,148.09 482.279,145.979C484.086,143.865 486.421,142.81 489.278,142.81C491.054,142.81 492.59,143.198 493.887,143.974C495.183,144.752 496.184,145.896 496.891,147.404L496.891,143.587L499.79,143.587L499.79,164.488L496.891,164.488Z" style="fill:rgb(147,149,152);fill-rule:nonzero;"/>
        <path d="M509.004,154.261C509.004,156.964 509.611,159.045 510.828,160.506C512.046,161.966 513.786,162.698 516.047,162.698C518.229,162.698 519.953,161.9 521.209,160.306C522.466,158.711 523.097,156.516 523.097,153.72C523.097,151.159 522.476,149.144 521.232,147.675C519.992,146.208 518.279,145.472 516.097,145.472C513.911,145.472 512.184,146.252 510.912,147.816C509.639,149.379 509.004,151.527 509.004,154.261ZM523.047,164.488L523.047,160.671C522.356,162.226 521.39,163.404 520.149,164.207C518.906,165.008 517.447,165.409 515.765,165.409C512.765,165.409 510.349,164.378 508.52,162.322C506.688,160.262 505.773,157.544 505.773,154.167C505.773,150.822 506.677,148.09 508.483,145.979C510.29,143.865 512.624,142.81 515.484,142.81C517.258,142.81 518.787,143.198 520.065,143.974C521.349,144.752 522.341,145.896 523.047,147.404L523.047,127.961L525.994,127.961L525.994,164.488L523.047,164.488Z" style="fill:rgb(147,149,152);fill-rule:nonzero;"/>
        <path d="M99.958,71.335C100.485,69.753 101.273,67.962 102.313,65.984C103.944,62.876 106.529,60.094 109.997,57.713L110.03,57.691L110.062,57.666C111.855,56.343 113.818,55.391 115.895,54.836C118.06,54.26 120.602,53.967 123.449,53.967C127.411,53.967 131.181,54.922 134.656,56.804C138.163,58.7 141.063,61.23 143.279,64.329C144.883,66.576 146.094,68.923 146.895,71.335L99.958,71.335ZM149.177,50.377C145.521,47.067 141.409,44.528 136.958,42.834C132.52,41.143 127.892,40.286 123.202,40.286L123.136,40.286L123.07,40.29L119.758,40.473L119.638,40.48L119.516,40.5L116.447,40.992C114.126,41.436 111.842,42.094 109.59,42.961C104.948,44.785 100.813,47.333 97.283,50.542C93.73,53.772 90.809,57.839 88.597,62.633C86.375,67.449 85.249,72.751 85.249,78.391C85.249,85.751 87.024,92.443 90.528,98.276C94.012,104.084 98.602,108.659 104.166,111.876C107.29,113.721 110.312,115.072 113.131,115.88C115.966,116.693 119.085,117.106 122.402,117.106C125.84,117.106 129.55,116.559 133.437,115.482C137.339,114.403 140.887,112.86 143.979,110.894C147.334,108.757 150.357,106.016 152.967,102.748C154.247,101.164 155.453,99.407 156.538,97.536C157.633,95.645 158.584,93.542 159.366,91.279L160.447,88.148L145.938,88.148L145.357,89.665C143.924,93.409 140.934,96.658 136.471,99.326C131.914,102.046 127.366,103.426 122.956,103.426C120.58,103.426 118.017,102.976 115.346,102.086C113.762,101.481 112.386,100.852 111.253,100.221C110.115,99.584 108.93,98.806 107.729,97.903C106.456,96.852 105.36,95.809 104.471,94.81C103.614,93.838 102.771,92.623 101.966,91.199C101.065,89.422 100.382,87.77 99.937,86.285C99.745,85.643 99.596,84.994 99.491,84.34L161.336,84.34L161.336,80.201C161.336,73.68 160.225,67.859 158.036,62.895C155.845,57.927 152.865,53.716 149.177,50.377Z" style="fill:rgb(109,111,113);fill-rule:nonzero;"/>
        <path d="M231.239,77.592C231.239,83.378 229.874,88.29 227.181,92.189C224.452,96.138 221.168,99.02 217.421,100.758C213.603,102.529 209.964,103.426 206.604,103.426C205.08,103.426 203.53,103.26 201.994,102.936C200.254,102.482 198.737,102.007 197.479,101.529C194.16,99.916 191.573,98.14 189.793,96.245C187.524,93.75 185.744,90.92 184.531,87.868C183.319,84.829 182.705,81.125 182.705,76.854C182.705,76.484 182.812,75.222 183.818,71.477C184.551,68.752 185.699,66.18 187.23,63.829C189.113,61.107 191.508,58.86 194.308,57.201L194.342,57.181L194.375,57.161C195.939,56.16 197.656,55.438 199.474,55.012L201.228,54.569L201.284,54.557L201.339,54.539C201.654,54.443 201.953,54.398 202.247,54.398L202.309,54.398L202.37,54.393L205.866,54.212C206.618,54.216 207.427,54.271 208.271,54.378C209.178,54.491 210.029,54.626 210.806,54.78C212.471,55.154 214.169,55.674 215.796,56.319C219.053,57.689 221.869,59.518 224.122,61.733C226.377,63.954 228.155,66.448 229.403,69.153C230.623,71.79 231.239,74.631 231.239,77.592ZM237.831,55.693C237.685,55.516 237.458,55.229 237.211,54.918C236.482,53.999 235.661,52.962 234.935,52.306C233.703,51.047 232.418,50.154 231.177,49.29C230.499,48.818 229.859,48.374 229.236,47.878C227.681,46.64 225.777,45.551 223.417,44.554C221.617,43.662 219.63,42.862 217.513,42.178C213.619,40.922 209.432,40.286 205.068,40.286L203.554,40.286L203.45,40.296L201.364,40.48L201.253,40.49L201.143,40.51L198.812,40.94L198.771,40.949L198.729,40.957L196.518,41.45L196.398,41.475L196.284,41.516C193.357,42.49 190.556,43.676 187.956,45.043C182.123,48.337 177.425,52.909 173.934,58.665C170.43,64.443 168.653,71.152 168.653,78.605C168.653,81.042 168.935,83.793 169.491,86.782L169.5,86.834L169.512,86.887C170.15,89.616 170.996,92.263 172.022,94.751L172.056,94.831L172.096,94.912C174.547,99.776 177.654,103.936 181.332,107.274C185.016,110.618 189.072,113.122 193.39,114.715C197.675,116.301 202.204,117.106 206.849,117.106C213.457,117.106 219.24,115.705 224.042,112.942C226.729,111.393 229.136,109.417 231.239,107.035C231.239,111.473 230.197,115.37 228.142,118.616C226.084,121.861 223.257,124.351 219.738,126.013C216.123,127.718 212.197,128.585 208.076,128.585C204.818,128.585 201.626,128.011 198.589,126.883C195.576,125.763 192.795,124.064 190.332,121.833C187.907,119.641 186.025,116.935 184.735,113.791L184.134,112.323L170.488,112.323L171.245,115.271C172.335,119.523 174.135,123.376 176.596,126.724C179.038,130.046 182.025,132.895 185.474,135.194C188.9,137.477 192.643,139.177 196.599,140.248C200.503,141.3 204.53,141.834 208.567,141.834C211.676,141.834 214.766,141.483 217.75,140.792C220.716,140.104 223.577,139.123 226.259,137.866C231.842,135.228 236.341,131.283 239.64,126.135C241.391,123.555 242.71,120.589 243.529,117.369C244.33,114.222 244.738,110.835 244.738,107.3L244.738,73.89C244.74,72.024 244.742,68.547 242.196,62.974C240.025,58.207 237.919,55.793 237.831,55.693Z" style="fill:rgb(109,111,113);fill-rule:nonzero;"/>
        <path d="M266.762,71.335C267.288,69.752 268.077,67.962 269.118,65.984C270.75,62.876 273.334,60.093 276.802,57.713L276.834,57.69L276.866,57.666C278.658,56.343 280.62,55.391 282.699,54.837C284.864,54.26 287.408,53.967 290.254,53.967C294.214,53.967 297.986,54.922 301.458,56.803C304.966,58.7 307.866,61.23 310.083,64.329C311.688,66.576 312.898,68.923 313.699,71.335L266.762,71.335ZM315.981,50.377C312.324,47.065 308.212,44.526 303.76,42.834C299.326,41.143 294.697,40.286 290.006,40.286L289.939,40.286L289.873,40.29L286.561,40.473L286.441,40.48L286.319,40.5L283.25,40.992C280.926,41.436 278.644,42.094 276.394,42.961C271.758,44.783 267.622,47.332 264.089,50.54C260.536,53.77 257.612,57.837 255.401,62.633C253.181,67.446 252.055,72.748 252.055,78.391C252.055,85.756 253.832,92.446 257.334,98.276C260.814,104.081 265.403,108.656 270.969,111.876C274.094,113.721 277.117,115.071 279.937,115.88C282.773,116.693 285.892,117.106 289.205,117.106C292.645,117.106 296.357,116.559 300.239,115.482C304.144,114.403 307.692,112.86 310.784,110.894C314.141,108.753 317.163,106.012 319.771,102.748C321.064,101.145 322.269,99.388 323.343,97.534C324.437,95.652 325.389,93.547 326.171,91.279L327.251,88.148L312.742,88.148L312.161,89.665C310.726,93.41 307.737,96.66 303.276,99.326C298.719,102.046 294.17,103.426 289.762,103.426C287.386,103.426 284.826,102.976 282.146,102.086C280.562,101.48 279.186,100.851 278.055,100.221C276.934,99.593 275.748,98.814 274.532,97.902C273.247,96.839 272.155,95.799 271.282,94.812C270.424,93.844 269.578,92.628 268.769,91.197C267.866,89.422 267.186,87.77 266.743,86.289C266.55,85.645 266.4,84.995 266.294,84.34L328.141,84.34L328.141,80.201C328.141,73.69 327.031,67.867 324.844,62.896C322.649,57.925 319.666,53.714 315.981,50.377Z" style="fill:rgb(109,111,113);fill-rule:nonzero;"/>
        <path d="M398.265,60.033C396.438,55.794 393.893,52.158 390.691,49.222C387.518,46.309 383.987,44.107 380.206,42.678C377.031,41.477 373.688,40.773 370.277,40.588C369.64,40.551 368.988,40.534 368.349,40.534C361.792,40.534 355.568,42.332 350.342,45.732C349.128,46.525 347.583,47.552 346.387,48.493C344.092,50.298 342.41,52.464 340.785,54.561L340.226,55.282C339.158,56.65 338.364,58.296 337.666,59.872C335.423,64.906 335.442,70.178 335.462,75.278L335.465,76.603C335.472,80.349 335.472,84.09 335.472,87.834L335.472,115.511L349.518,115.511L349.518,73.207C349.518,71.223 349.758,69.322 350.231,67.561C350.7,65.829 351.357,64.256 352.184,62.889C354.016,60.016 356.309,57.93 359.164,56.555C362.061,55.165 365.04,54.459 368.021,54.459C371.336,54.459 374.557,55.273 377.591,56.882C380.63,58.494 382.95,60.669 384.681,63.535C386.392,66.363 387.259,69.988 387.259,74.31L387.259,115.511L401,115.511L401,74.31C401,69.07 400.08,64.268 398.265,60.033Z" style="fill:rgb(109,111,113);fill-rule:nonzero;"/>
        <path d="M38.968,104.313C31.912,104.313 26.072,101.904 21.115,96.948C16.12,91.95 13.69,86.091 13.689,79.035C13.689,71.982 16.118,66.123 21.115,61.123C26.109,56.129 31.966,53.704 39.023,53.704C46.08,53.704 51.938,56.13 56.934,61.126C61.891,66.084 64.3,71.922 64.3,78.979C64.3,86.034 61.874,91.892 56.878,96.892C51.881,101.886 46.022,104.313 38.968,104.313ZM30.142,14.828L29.45,14.137L10.39,14.137L14.419,18.167L36.126,39.877C26.613,40.505 18.314,44.309 11.419,51.204C3.841,58.779 0,68.049 0,78.752C0,89.455 3.841,98.726 11.419,106.301C18.992,113.875 28.26,117.717 38.968,117.717C49.674,117.717 58.941,113.875 66.514,106.301C74.093,98.723 77.935,89.455 77.932,78.752C77.935,68.052 74.093,58.782 66.516,51.204L30.142,14.828Z" style="fill:rgb(109,111,113);fill-rule:nonzero;"/>
        <path d="M496.073,33.03L455.138,115.536L525.994,115.536L566.93,33.03L496.073,33.03Z" style="fill:rgb(147,149,152);fill-rule:nonzero;"/>
        <path d="M525.088,70.317C519.883,65.103 513.406,62.445 505.84,62.415C504.177,62.353 494.343,62.268 487.1,69.048C482.079,73.752 479.534,80.427 479.534,88.891L490.355,88.891C490.355,83.58 491.733,79.579 494.445,77.004C498.73,72.932 505.322,73.228 505.355,73.228L505.711,73.239C510.418,73.239 514.253,74.785 517.425,77.962C522.453,83.001 539.207,123.59 539.207,123.59C539.261,97.312 534.637,79.885 525.088,70.317Z" style="fill:rgb(88,89,91);fill-rule:nonzero;"/>
        <path d="M529.649,50.469C514.63,59.473 504.113,52.378 504.113,52.378C514.611,74.572 529.649,50.469 529.649,50.469Z" style="fill:rgb(88,89,91);fill-rule:nonzero;"/>
        <path d="M485.012,0.667L437.112,97.409L455.125,97.409L503.024,0.667L485.012,0.667Z" style="fill:rgb(209,211,212);fill-rule:nonzero;"/>
        <path d="M422.08,115.051L471.814,14.621L484.206,14.621L434.473,115.051L422.08,115.051Z" style="fill:rgb(255,221,0);fill-rule:nonzero;"/>
        <path d="M484.985,14.137L471.514,14.137L421.301,115.536L434.773,115.536L484.985,14.137ZM483.426,15.104L434.173,114.568L422.86,114.568L472.114,15.104L483.426,15.104Z" style="fill:rgb(109,111,113);fill-rule:nonzero;"/>
        <path d="M528.178,67.224C522.974,62.012 516.497,59.354 508.931,59.324C507.272,59.26 497.437,59.177 490.196,65.957C485.173,70.659 482.627,77.336 482.627,85.8L493.446,85.8C493.446,80.487 494.824,76.486 497.539,73.911C501.823,69.841 508.413,70.139 508.449,70.137L508.806,70.147C513.511,70.147 517.344,71.692 520.516,74.872C525.544,79.909 542.301,120.497 542.301,120.497C542.353,94.221 537.73,76.794 528.178,67.224Z" style="fill:rgb(255,221,0);fill-rule:nonzero;"/>
        <path d="M528.178,67.224C522.974,62.012 516.497,59.354 508.931,59.324C507.272,59.26 497.437,59.177 490.196,65.957C485.173,70.659 482.627,77.336 482.627,85.8L493.446,85.8C493.446,80.487 494.824,76.486 497.539,73.911C501.823,69.841 508.413,70.139 508.449,70.137L508.806,70.147C513.511,70.147 517.344,71.692 520.516,74.872C525.544,79.909 542.301,120.497 542.301,120.497C542.353,94.221 537.73,76.794 528.178,67.224Z" style="fill:none;stroke:rgb(109,111,113);stroke-width:0.97px;"/>
        <path d="M532.74,47.377C517.723,56.379 507.202,49.286 507.202,49.286C517.703,71.48 532.74,47.377 532.74,47.377Z" style="fill:rgb(255,221,0);fill-rule:nonzero;"/>
        <path d="M532.74,47.377C517.723,56.379 507.202,49.286 507.202,49.286C517.703,71.48 532.74,47.377 532.74,47.377Z" style="fill:none;stroke:rgb(109,111,113);stroke-width:0.97px;"/>
    </g>
</svg>
