<?xml version="1.0" encoding="UTF-8" standalone="no"?><!DOCTYPE svg PUBLIC "-//W3C//DTD SVG 1.1//EN" "http://www.w3.org/Graphics/SVG/1.1/DTD/svg11.dtd"><svg width="100%" height="100%" viewBox="0 0 2363 730" version="1.1" xmlns="http://www.w3.org/2000/svg" xmlns:xlink="http://www.w3.org/1999/xlink" xml:space="preserve" xmlns:serif="http://www.serif.com/" style="fill-rule:evenodd;clip-rule:evenodd;stroke-miterlimit:2;"><g><path d="M1050.23,685.367l0,-152.196l11.488,-0l-0,78.558c3.537,-5.562 7.875,-9.742 13.012,-12.521c5.138,-2.779 11.038,-4.166 17.721,-4.166c9.888,-0 17.575,2.741 23.079,8.241c5.496,5.5 8.246,13.163 8.246,22.975l-0,59.109l-12.279,-0l-0,-53.709c-0,-8.704 -1.813,-15.162 -5.446,-19.387c-3.633,-4.225 -9.25,-6.338 -16.837,-6.338c-9.23,0 -16.025,2.742 -20.376,8.2c-4.354,5.467 -6.524,14.059 -6.524,25.78l-0,45.454l-12.084,-0Z" style="fill:#939598;fill-rule:nonzero;"/><path d="M1215.48,631.862c-0.583,-7.991 -3.233,-14.174 -7.946,-18.562c-4.717,-4.383 -11.092,-6.575 -19.141,-6.575c-7.338,0 -13.475,2.292 -18.417,6.871c-4.942,4.583 -7.813,10.666 -8.592,18.266l54.096,0Zm14.342,10.309l-69.225,-0c0.325,11.25 3.141,20.092 8.441,26.508c5.309,6.408 12.409,9.621 21.309,9.621c6.42,-0 12.041,-1.733 16.891,-5.208c4.842,-3.463 8.863,-8.7 12.08,-15.704l11.095,6.083c-4.454,8.841 -9.908,15.337 -16.35,19.492c-6.45,4.154 -14.354,6.241 -23.716,6.241c-12.763,0 -23.092,-4.279 -30.975,-12.816c-7.892,-8.542 -11.834,-19.755 -11.834,-33.634c0,-14.267 3.913,-25.783 11.734,-34.562c7.821,-8.771 18.054,-13.15 30.687,-13.15c12.042,-0 21.7,4.037 28.959,12.12c7.27,8.084 10.904,18.867 10.904,32.355l-0,2.654Z" style="fill:#939598;fill-rule:nonzero;"/><path d="M1255.74,685.367l-0,-87.088l12.462,0l0,87.088l-12.462,-0Zm-3.046,-121.063c-0,-2.55 0.908,-4.725 2.75,-6.529c1.833,-1.8 4.029,-2.704 6.583,-2.704c2.55,-0 4.754,0.904 6.625,2.704c1.858,1.804 2.792,3.979 2.792,6.529c-0,2.621 -0.896,4.804 -2.692,6.571c-1.808,1.771 -4.05,2.662 -6.725,2.662c-2.625,0 -4.829,-0.891 -6.633,-2.662c-1.8,-1.767 -2.7,-3.95 -2.7,-6.571Z" style="fill:#939598;fill-rule:nonzero;"/><path d="M1287.35,685.367l48.604,-76.184l-45.266,0l-0,-10.904l66.175,0l-48.204,76.196l49.583,-0l-0,10.892l-70.892,-0Z" style="fill:#939598;fill-rule:nonzero;"/><path d="M1389.86,598.279l0,43.492c0,13.229 1.884,22.554 5.646,27.983c3.767,5.438 10.134,8.154 19.1,8.154c8.9,0 15.284,-2.746 19.15,-8.25c3.855,-5.495 5.784,-14.787 5.784,-27.887l-0,-43.492l11.983,0l-0,49.683c-0,13.555 -3.113,23.809 -9.325,30.78c-6.225,6.979 -15.358,10.462 -27.392,10.462c-12.116,0 -21.316,-3.483 -27.596,-10.462c-6.287,-6.971 -9.424,-17.225 -9.424,-30.78l-0,-49.683l12.074,0Z" style="fill:#939598;fill-rule:nonzero;"/><path d="M1483.73,685.367l0,-87.088l11.488,0l-0,13.45c3.537,-5.562 7.871,-9.742 13.008,-12.521c5.146,-2.779 11.046,-4.166 17.725,-4.166c9.892,-0 17.575,2.741 23.084,8.241c5.491,5.5 8.241,13.163 8.241,22.975l0,59.109l-12.275,-0l0,-53.709c0,-8.704 -1.817,-15.162 -5.45,-19.387c-3.625,-4.225 -9.246,-6.338 -16.833,-6.338c-9.246,0 -16.029,2.742 -20.379,8.2c-4.355,5.467 -6.534,14.059 -6.534,25.78l0,45.454l-12.075,-0Z" style="fill:#939598;fill-rule:nonzero;"/><path d="M1623.46,606.133c-9.033,0 -16.15,3.221 -21.358,9.667c-5.204,6.446 -7.808,15.3 -7.808,26.562c-0,11.196 2.475,19.925 7.416,26.167c4.946,6.254 11.8,9.379 20.571,9.379c9.296,0 16.742,-3.304 22.338,-9.916c5.6,-6.617 8.404,-15.517 8.404,-26.704c-0,-11.001 -2.625,-19.609 -7.859,-25.825c-5.241,-6.221 -12.479,-9.33 -21.704,-9.33Zm41.63,-7.854l-0,71.967c-0,11.458 -0.309,20.2 -0.934,26.221c-0.617,6.021 -1.65,10.504 -3.092,13.45c-3.008,6.487 -7.629,11.308 -13.837,14.487c-6.221,3.175 -14.083,4.763 -23.567,4.763c-11.591,-0 -20.612,-2.246 -27.054,-6.734c-6.446,-4.475 -10.358,-11.271 -11.733,-20.362l15.117,-0c0.987,5.362 3.558,9.425 7.712,12.171c4.162,2.75 9.8,4.125 16.937,4.125c5.367,-0 10.192,-0.95 14.488,-2.85c4.279,-1.896 7.504,-4.517 9.667,-7.846c1.441,-2.171 2.475,-4.675 3.091,-7.521c0.625,-2.85 0.938,-7.258 0.938,-13.204l-0,-17.675c-2.692,6.216 -6.796,11.091 -12.325,14.625c-5.534,3.537 -11.871,5.308 -19.004,5.308c-12.238,0 -22.013,-4.266 -29.304,-12.775c-7.305,-8.504 -10.95,-19.925 -10.95,-34.258c-0,-14.208 3.733,-25.617 11.195,-34.221c7.463,-8.608 17.342,-12.908 29.65,-12.908c6.871,-0 13.109,1.779 18.709,5.346c5.595,3.575 9.604,8.299 12.029,14.191l-0,-16.3l12.267,0Z" style="fill:#939598;fill-rule:nonzero;"/><path d="M1783.98,638.329c-7.496,0 -13.692,-2.575 -18.942,-7.883c-5.25,-5.317 -7.804,-11.55 -7.804,-19.059c0,-7.508 2.579,-13.704 7.884,-18.941c5.308,-5.25 11.541,-7.8 19.058,-7.8c7.446,-0 13.633,2.558 18.904,7.833c5.279,5.283 7.842,11.467 7.842,18.908c-0,7.442 -2.596,13.655 -7.938,19c-5.354,5.346 -11.571,7.942 -19.004,7.942Z" style="fill:#fd0;fill-rule:nonzero;"/><path d="M1784.17,582.629c-7.996,0 -14.817,2.788 -20.475,8.379c-5.654,5.588 -8.483,12.379 -8.483,20.379c-0,7.996 2.8,14.821 8.391,20.475c5.584,5.646 12.375,8.484 20.371,8.484c7.933,-0 14.729,-2.846 20.429,-8.533c5.688,-5.688 8.529,-12.496 8.529,-20.426c0,-7.925 -2.812,-14.708 -8.433,-20.333c-5.621,-5.621 -12.396,-8.425 -20.329,-8.425Zm-0,4.029c6.887,0 12.604,2.371 17.479,7.246c4.879,4.883 7.254,10.609 7.254,17.483c0,6.88 -2.404,12.626 -7.35,17.576c-4.958,4.945 -10.708,7.35 -17.579,7.35c-6.929,-0 -12.654,-2.384 -17.504,-7.288c-4.863,-4.917 -7.225,-10.688 -7.225,-17.638c-0,-6.937 2.383,-12.666 7.287,-17.508c4.909,-4.858 10.68,-7.221 17.638,-7.221Z" style="fill:#6d6f71;fill-rule:nonzero;"/><path d="M1967.87,642.754c-0,-11.391 -2.663,-20.342 -7.95,-26.854c-5.313,-6.517 -12.5,-9.767 -21.608,-9.767c-9.096,0 -16.234,3.067 -21.405,9.179c-5.171,6.121 -7.758,14.517 -7.758,25.188c0,11.65 2.633,20.796 7.917,27.442c5.254,6.641 12.479,9.966 21.645,9.966c9.351,0 16.555,-3.029 21.596,-9.087c5.046,-6.05 7.563,-14.738 7.563,-26.067Zm-58.517,42.613l-12.083,-0l-0,-152.196l12.083,-0l0,81.012c2.938,-6.283 7.079,-11.05 12.417,-14.291c5.333,-3.234 11.7,-4.85 19.1,-4.85c11.908,-0 21.629,4.395 29.162,13.204c7.525,8.796 11.284,20.179 11.284,34.116c-0,14.071 -3.805,25.396 -11.438,33.98c-7.621,8.566 -17.692,12.862 -30.192,12.862c-7.004,0 -13.091,-1.671 -18.258,-5.008c-5.179,-3.346 -9.2,-8.254 -12.075,-14.734l0,15.905Z" style="fill:#939598;fill-rule:nonzero;"/><path d="M2011.66,642.754c0,11.263 2.538,19.934 7.609,26.021c5.075,6.083 12.325,9.133 21.75,9.133c9.162,0 16.379,-3.325 21.654,-9.966c5.271,-6.646 7.904,-15.792 7.904,-27.442c-0,-10.671 -2.617,-19.067 -7.854,-25.188c-5.238,-6.112 -12.408,-9.179 -21.513,-9.179c-9.095,0 -16.295,3.25 -21.595,9.767c-5.301,6.512 -7.955,15.463 -7.955,26.854Zm58.721,42.613l0,-15.905c-2.887,6.417 -6.925,11.313 -12.125,14.68c-5.208,3.371 -11.341,5.062 -18.408,5.062c-12.513,0 -22.571,-4.296 -30.196,-12.862c-7.633,-8.584 -11.442,-19.909 -11.442,-33.98c0,-13.937 3.767,-25.32 11.288,-34.116c7.529,-8.809 17.258,-13.204 29.162,-13.204c7.4,-0 13.8,1.616 19.204,4.85c5.401,3.241 9.571,8.008 12.517,14.291l0,-15.904l12.079,0l0,87.088l-12.079,-0Z" style="fill:#939598;fill-rule:nonzero;"/><path d="M2120.85,642.754c-0,11.263 2.529,19.934 7.6,26.021c5.075,6.083 12.325,9.133 21.746,9.133c9.092,0 16.275,-3.325 21.508,-9.966c5.238,-6.646 7.867,-15.792 7.867,-27.442c-0,-10.671 -2.588,-19.067 -7.771,-25.188c-5.167,-6.112 -12.304,-9.179 -21.396,-9.179c-9.108,0 -16.304,3.25 -21.604,9.767c-5.304,6.512 -7.95,15.463 -7.95,26.854Zm58.512,42.613l0,-15.905c-2.879,6.48 -6.904,11.388 -12.075,14.734c-5.179,3.337 -11.258,5.008 -18.266,5.008c-12.5,0 -22.567,-4.296 -30.188,-12.862c-7.633,-8.584 -11.445,-19.909 -11.445,-33.98c-0,-13.937 3.766,-25.32 11.291,-34.116c7.529,-8.809 17.254,-13.204 29.171,-13.204c7.392,-0 13.762,1.616 19.088,4.85c5.349,3.241 9.483,8.008 12.424,14.291l0,-81.012l12.28,-0l-0,152.196l-12.28,-0Z" style="fill:#939598;fill-rule:nonzero;"/><path d="M416.492,297.229c2.196,-6.592 5.479,-14.054 9.812,-22.296c6.796,-12.95 17.567,-24.541 32.017,-34.462l0.137,-0.092l0.134,-0.104c7.471,-5.512 15.65,-9.479 24.304,-11.792c9.021,-2.4 19.612,-3.62 31.475,-3.62c16.508,-0 32.216,3.979 46.696,11.82c14.612,7.9 26.696,18.442 35.929,31.355c6.683,9.362 11.729,19.141 15.067,29.191l-195.571,0Zm205.079,-87.325c-15.234,-13.791 -32.367,-24.371 -50.913,-31.429c-18.491,-7.046 -37.775,-10.617 -57.316,-10.617l-0.275,0l-0.275,0.017l-13.8,0.763l-0.5,0.029l-0.509,0.083l-12.787,2.05c-9.671,1.85 -19.188,4.592 -28.571,8.204c-19.342,7.6 -36.571,18.217 -51.279,31.588c-14.804,13.458 -26.975,30.404 -36.192,50.379c-9.258,20.066 -13.95,42.158 -13.95,65.658c0,30.667 7.396,58.55 21.996,82.854c14.517,24.2 33.642,43.263 56.825,56.667c13.017,7.688 25.608,13.317 37.354,16.683c11.813,3.388 24.808,5.109 38.629,5.109c14.325,-0 29.784,-2.28 45.979,-6.767c16.259,-4.496 31.042,-10.925 43.926,-19.117c13.979,-8.904 26.574,-20.325 37.449,-33.941c5.334,-6.6 10.359,-13.921 14.88,-21.717c4.562,-7.879 8.525,-16.642 11.783,-26.071l4.504,-13.046l-60.454,0l-2.421,6.321c-5.971,15.6 -18.429,29.138 -37.025,40.254c-18.987,11.334 -37.937,17.084 -56.312,17.084c-9.9,-0 -20.58,-1.875 -31.709,-5.584c-6.6,-2.52 -12.333,-5.141 -17.054,-7.77c-4.742,-2.655 -9.679,-5.896 -14.683,-9.659c-5.304,-4.379 -9.871,-8.725 -13.575,-12.887c-3.571,-4.05 -7.083,-9.113 -10.438,-15.046c-3.754,-7.404 -6.6,-14.288 -8.454,-20.475c-0.8,-2.675 -1.421,-5.379 -1.858,-8.104l257.687,-0l0,-17.246c0,-27.171 -4.629,-51.425 -13.75,-72.109c-9.129,-20.699 -21.545,-38.245 -36.912,-52.158Z" style="fill:#6d6f71;fill-rule:nonzero;"/><path d="M963.496,323.3c-0,24.108 -5.688,44.575 -16.909,60.821c-11.37,16.454 -25.054,28.462 -40.666,35.704c-15.909,7.379 -31.071,11.117 -45.071,11.117c-6.35,-0 -12.808,-0.692 -19.208,-2.042c-7.25,-1.892 -13.571,-3.871 -18.813,-5.863c-13.829,-6.72 -24.608,-14.12 -32.025,-22.016c-9.454,-10.396 -16.871,-22.188 -21.925,-34.904c-5.05,-12.663 -7.608,-28.096 -7.608,-45.892c-0,-1.542 0.446,-6.8 4.637,-22.404c3.054,-11.354 7.838,-22.071 14.217,-31.867c7.846,-11.341 17.825,-20.704 29.492,-27.617l0.141,-0.083l0.138,-0.083c6.516,-4.171 13.671,-7.179 21.246,-8.954l7.308,-1.846l0.233,-0.05l0.23,-0.075c1.312,-0.4 2.558,-0.588 3.783,-0.588l0.258,0l0.254,-0.021l14.567,-0.754c3.133,0.017 6.504,0.246 10.021,0.692c3.779,0.471 7.325,1.033 10.562,1.675c6.938,1.558 14.013,3.725 20.792,6.413c13.571,5.708 25.304,13.329 34.692,22.558c9.395,9.254 16.804,19.646 22.004,30.916c5.083,10.988 7.65,22.825 7.65,35.163Zm27.466,-91.246c-0.608,-0.737 -1.554,-1.933 -2.583,-3.229c-3.037,-3.829 -6.458,-8.15 -9.483,-10.883c-5.133,-5.246 -10.488,-8.967 -15.658,-12.567c-2.826,-1.967 -5.492,-3.817 -8.088,-5.883c-6.479,-5.159 -14.413,-9.696 -24.246,-13.85c-7.5,-3.717 -15.779,-7.05 -24.6,-9.9c-16.225,-5.234 -33.671,-7.884 -51.854,-7.884l-6.308,0l-0.434,0.042l-8.691,0.767l-0.463,0.041l-0.458,0.084l-9.713,1.791l-0.171,0.038l-0.174,0.033l-9.213,2.054l-0.5,0.105l-0.475,0.17c-12.196,4.059 -23.867,9 -34.7,14.696c-24.304,13.725 -43.879,32.775 -58.425,56.759c-14.6,24.075 -22.004,52.029 -22.004,83.083c-0,10.154 1.175,21.616 3.491,34.071l0.038,0.216l0.05,0.221c2.658,11.371 6.183,22.4 10.458,32.767l0.142,0.333l0.167,0.338c10.212,20.266 23.158,37.6 38.483,51.508c15.35,13.933 32.25,24.367 50.242,31.004c17.854,6.608 36.725,9.963 56.079,9.963c27.533,-0 51.629,-5.838 71.637,-17.35c11.196,-6.454 21.225,-14.688 29.988,-24.613c-0,18.492 -4.342,34.729 -12.904,48.254c-8.575,13.521 -20.354,23.896 -35.017,30.821c-15.062,7.104 -31.421,10.717 -48.592,10.717c-13.575,-0 -26.875,-2.392 -39.529,-7.092c-12.554,-4.666 -24.142,-11.746 -34.404,-21.041c-10.104,-9.134 -17.946,-20.409 -23.321,-33.509l-2.504,-6.116l-56.858,-0l3.154,12.283c4.542,17.716 12.041,33.771 22.296,47.721c10.175,13.841 22.62,25.712 36.991,35.291c14.275,9.513 29.871,16.596 46.354,21.059c16.267,4.383 33.046,6.608 49.867,6.608c12.954,-0 25.829,-1.462 38.263,-4.342c12.358,-2.866 24.279,-6.954 35.454,-12.191c23.262,-10.992 42.008,-27.429 55.754,-48.88c7.296,-10.749 12.792,-23.108 16.204,-36.525c3.338,-13.112 5.038,-27.225 5.038,-41.954l-0,-139.208c0.008,-7.775 0.016,-22.263 -10.592,-45.483c-9.046,-19.863 -17.821,-29.921 -18.188,-30.338Z" style="fill:#6d6f71;fill-rule:nonzero;"/><path d="M1111.51,297.229c2.192,-6.596 5.479,-14.054 9.817,-22.296c6.8,-12.95 17.567,-24.545 32.017,-34.462l0.133,-0.096l0.133,-0.1c7.467,-5.512 15.642,-9.479 24.305,-11.788c9.02,-2.404 19.62,-3.624 31.479,-3.624c16.5,-0 32.216,3.979 46.683,11.816c14.617,7.904 26.7,18.446 35.938,31.359c6.687,9.362 11.729,19.141 15.066,29.191l-195.571,0Zm205.079,-87.325c-15.237,-13.8 -32.37,-24.379 -50.92,-31.429c-18.475,-7.046 -37.763,-10.617 -57.309,-10.617l-0.279,0l-0.275,0.017l-13.8,0.763l-0.5,0.029l-0.508,0.083l-12.788,2.05c-9.683,1.85 -19.191,4.592 -28.566,8.204c-19.317,7.592 -36.55,18.213 -51.271,31.579c-14.804,13.459 -26.988,30.404 -36.2,50.388c-9.25,20.054 -13.942,42.146 -13.942,65.658c0,30.688 7.404,58.563 21.996,82.854c14.5,24.188 33.621,43.25 56.812,56.667c13.021,7.688 25.617,13.312 37.367,16.683c11.817,3.388 24.813,5.109 38.617,5.109c14.333,-0 29.8,-2.28 45.975,-6.767c16.271,-4.496 31.054,-10.925 43.937,-19.117c13.988,-8.921 26.579,-20.341 37.446,-33.941c5.388,-6.68 10.409,-14 14.883,-21.725c4.559,-7.842 8.526,-16.613 11.784,-26.063l4.5,-13.046l-60.454,0l-2.421,6.321c-5.979,15.604 -18.434,29.146 -37.021,40.254c-18.988,11.334 -37.942,17.084 -56.308,17.084c-9.9,-0 -20.567,-1.875 -31.734,-5.584c-6.6,-2.525 -12.333,-5.146 -17.046,-7.77c-4.67,-2.617 -9.612,-5.863 -14.679,-9.663c-5.354,-4.429 -9.904,-8.762 -13.541,-12.875c-3.575,-4.033 -7.1,-9.1 -10.471,-15.063c-3.763,-7.395 -6.596,-14.279 -8.442,-20.449c-0.804,-2.684 -1.429,-5.392 -1.871,-8.121l257.696,-0l0,-17.246c0,-27.129 -4.625,-51.392 -13.737,-72.104c-9.146,-20.713 -21.575,-38.259 -36.93,-52.163Z" style="fill:#6d6f71;fill-rule:nonzero;"/><path d="M1659.44,250.137c-7.613,-17.662 -18.217,-32.812 -31.559,-45.045c-13.221,-12.138 -27.933,-21.313 -43.687,-27.267c-13.229,-5.004 -27.159,-7.938 -41.371,-8.708c-2.654,-0.155 -5.371,-0.225 -8.034,-0.225c-27.32,-0 -53.254,7.491 -75.029,21.658c-5.058,3.304 -11.495,7.583 -16.479,11.504c-9.562,7.521 -16.571,16.546 -23.341,25.283l-2.33,3.005c-4.45,5.7 -7.758,12.558 -10.666,19.125c-9.346,20.975 -9.267,42.941 -9.184,64.191l0.013,5.521c0.029,15.608 0.029,31.196 0.029,46.796l-0,115.321l58.525,-0l0,-176.267c0,-8.267 1,-16.187 2.971,-23.525c1.954,-7.216 4.691,-13.771 8.137,-19.467c7.634,-11.97 17.188,-20.662 29.084,-26.391c12.071,-5.792 24.483,-8.734 36.904,-8.734c13.812,0 27.233,3.392 39.875,10.096c12.662,6.717 22.329,15.779 29.541,27.721c7.13,11.783 10.742,26.888 10.742,44.896l0,171.671l57.254,-0l0,-171.671c0,-21.833 -3.833,-41.842 -11.395,-59.488Z" style="fill:#6d6f71;fill-rule:nonzero;"/><path d="M162.367,434.638c-29.4,-0 -53.734,-10.038 -74.388,-30.688c-20.812,-20.825 -30.937,-45.237 -30.941,-74.637c-0,-29.388 10.12,-53.8 30.941,-74.634c20.808,-20.808 45.213,-30.912 74.617,-30.912c29.404,-0 53.812,10.108 74.629,30.925c20.654,20.658 30.692,44.983 30.692,74.387c-0,29.396 -10.109,53.804 -30.925,74.638c-20.821,20.808 -45.234,30.921 -74.625,30.921Zm-36.775,-372.855l-2.884,-2.879l-79.416,0l16.787,16.792l90.446,90.458c-39.637,2.617 -74.217,18.467 -102.946,47.196c-31.575,31.562 -47.579,70.188 -47.579,114.783c-0,44.596 16.004,83.225 47.579,114.788c31.554,31.558 70.171,47.566 114.788,47.566c44.608,0 83.221,-16.008 114.775,-47.566c31.579,-31.575 47.587,-70.192 47.575,-114.788c0.012,-44.583 -15.996,-83.208 -47.567,-114.783l-151.558,-151.567Z" style="fill:#6d6f71;fill-rule:nonzero;"/><path d="M2066.97,137.625l-170.563,343.775l295.234,-0l170.566,-343.775l-295.237,-0Z" style="fill:#939598;fill-rule:nonzero;"/><path d="M2187.87,292.988c-21.688,-21.726 -48.675,-32.801 -80.2,-32.925c-6.929,-0.259 -47.905,-0.613 -78.084,27.637c-20.92,19.6 -31.525,47.413 -31.525,82.679l45.088,0c-0,-22.129 5.742,-38.8 17.042,-49.529c17.854,-16.967 45.32,-15.733 45.458,-15.733l1.483,0.045c19.613,0 35.592,6.442 48.808,19.68c20.951,20.995 90.759,190.116 90.759,190.116c0.225,-109.491 -19.042,-182.104 -58.829,-221.97Z" style="fill:#58595b;fill-rule:nonzero;"/><path d="M2206.87,210.288c-62.579,37.516 -106.4,7.954 -106.4,7.954c43.742,92.475 106.4,-7.954 106.4,-7.954Z" style="fill:#58595b;fill-rule:nonzero;"/><path d="M2020.88,2.779l-199.583,403.092l75.054,-0l199.579,-403.092l-75.05,0Z" style="fill:#d1d3d4;fill-rule:nonzero;"/><path d="M1758.67,479.379l207.225,-418.458l51.633,-0l-207.221,418.458l-51.637,0Z" style="fill:#fd0;fill-rule:nonzero;"/><path d="M2020.77,58.904l-56.129,0l-209.221,422.496l56.133,-0l209.217,-422.496Zm-6.496,4.029l-205.221,414.434l-47.137,-0l205.225,-414.434l47.133,0Z" style="fill:#6d6f71;fill-rule:nonzero;"/><path d="M2200.74,280.1c-21.684,-21.717 -48.671,-32.792 -80.196,-32.917c-6.913,-0.266 -47.892,-0.612 -78.063,27.638c-20.929,19.591 -31.537,47.412 -31.537,82.679l45.079,0c0,-22.138 5.742,-38.808 17.054,-49.537c17.85,-16.959 45.308,-15.717 45.459,-15.725l1.487,0.041c19.604,0 35.575,6.438 48.792,19.688c20.95,20.987 90.771,190.104 90.771,190.104c0.216,-109.483 -19.046,-182.096 -58.846,-221.971Z" style="fill:#fd0;fill-rule:nonzero;"/><path d="M2200.74,280.1c-21.684,-21.717 -48.671,-32.792 -80.196,-32.917c-6.913,-0.266 -47.892,-0.612 -78.063,27.638c-20.929,19.591 -31.537,47.412 -31.537,82.679l45.079,0c0,-22.138 5.742,-38.808 17.054,-49.537c17.85,-16.959 45.308,-15.717 45.459,-15.725l1.487,0.041c19.604,0 35.575,6.438 48.792,19.688c20.95,20.987 90.771,190.104 90.771,190.104c0.216,-109.483 -19.046,-182.096 -58.846,-221.971Z" style="fill:none;stroke:#6d6f71;stroke-width:4.03px;"/><path d="M2219.75,197.404c-62.571,37.508 -106.408,7.954 -106.408,7.954c43.754,92.475 106.408,-7.954 106.408,-7.954Z" style="fill:#fd0;fill-rule:nonzero;"/><path d="M2219.75,197.404c-62.571,37.508 -106.408,7.954 -106.408,7.954c43.754,92.475 106.408,-7.954 106.408,-7.954Z" style="fill:none;stroke:#6d6f71;stroke-width:4.03px;"/></g></svg>