<?xml version="1.0" encoding="UTF-8" standalone="no"?><!DOCTYPE svg PUBLIC "-//W3C//DTD SVG 1.1//EN" "http://www.w3.org/Graphics/SVG/1.1/DTD/svg11.dtd"><svg width="100%" height="100%" viewBox="0 0 3508 2481" version="1.1" xmlns="http://www.w3.org/2000/svg" xmlns:xlink="http://www.w3.org/1999/xlink" xml:space="preserve" xmlns:serif="http://www.serif.com/" style="fill-rule:evenodd;clip-rule:evenodd;stroke-linejoin:round;stroke-miterlimit:2;"><text x="-2.308px" y="1697.02px" style="font-family:'Swiss721BT-LightExtended', 'Swis721 LtEx BT', sans-serif;font-stretch:expanded;font-size:205.543px;">www<tspan x="512.351px 578.992px " y="1697.02px 1697.02px ">.i</tspan>ndustrie-montage-gross.de</text><clipPath id="_clip1"><rect id="LogoSchriftzug.svg" x="0" y="268.35" width="3507.87" height="1205.29"/></clipPath><g clip-path="url(#_clip1)"><g><path d="M193.682,268.855c-39.793,2.849 -78.851,17.37 -110.282,40.988c-11.487,8.685 -26.191,22.562 -34.784,32.947c-28.765,34.739 -44.848,74.808 -48.156,120.161c-0.644,8.96 -0.644,807.124 -0,816.084c2.757,37.725 14.336,71.775 34.876,102.47c7.674,11.442 15.164,20.448 25.732,31.063c16.956,16.955 33.866,29.086 54.957,39.517c24.906,12.269 50.546,19.116 78.806,21.092c9.236,0.643 806.434,0.643 815.624,-0c18.702,-1.333 35.52,-4.642 52.752,-10.385c67.593,-22.608 118.874,-78.208 135.83,-147.226c2.435,-9.972 4.043,-18.932 5.192,-29.409c0.781,-7.26 0.827,-24.262 0.827,-415.164c0,-390.902 -0.046,-407.904 -0.827,-415.164c-1.149,-10.477 -2.757,-19.437 -5.192,-29.409c-19.759,-80.459 -86.066,-141.758 -167.904,-155.267c-3.171,-0.505 -8.731,-1.287 -12.407,-1.746c-6.295,-0.781 -27.754,-0.827 -413.096,-0.873c-223.55,-0.046 -408.915,0.138 -411.948,0.321Zm823.666,65.986c12.912,2.205 23.297,5.008 33.084,8.96c44.435,18.013 76.738,56.519 86.571,103.205c0.644,2.941 1.517,8.042 1.976,11.35c0.781,5.744 0.827,22.929 0.827,412.637c0,392.097 -0.046,406.893 -0.827,412.637c-2.389,16.864 -6.571,30.557 -13.693,45.032c-10.063,20.448 -24.216,37.541 -42.459,51.235c-21.275,15.945 -47.007,25.778 -73.567,28.03c-4.273,0.367 -118.414,0.459 -410.753,0.367l-404.825,-0.184l-5.744,-0.965c-21.183,-3.584 -37.082,-9.282 -53.532,-19.161c-23.573,-14.199 -42.459,-34.739 -54.452,-59.322c-7.076,-14.521 -10.752,-26.284 -13.417,-42.964l-1.057,-6.663l-0,-816.084l1.057,-6.663c4.778,-30.097 16.036,-53.9 36.301,-76.6c6.846,-7.627 19.437,-18.104 29.27,-24.353c18.105,-11.442 40.758,-19.162 62.493,-21.23c2.298,-0.229 186.1,-0.367 410.569,-0.321l406.434,0.092l5.744,0.965Z" style="fill-rule:nonzero;"/><path d="M577.83,389.935c-27.984,1.609 -58.633,5.147 -65.71,7.628c-5.56,1.93 -10.063,5.974 -12.452,11.166c-0.598,1.241 -7.812,27.525 -15.991,58.312c-8.225,30.833 -15.118,56.197 -15.302,56.381c-0.23,0.184 -3.446,1.562 -7.26,3.079c-12.912,5.146 -27.524,12.223 -40.391,19.575l-6.846,3.952l-50.822,-22.608c-27.938,-12.407 -52.475,-23.159 -54.497,-23.894c-5.744,-1.976 -11.212,-1.701 -16.68,0.873c-6.204,2.94 -32.442,27.248 -48.157,44.71c-16.45,18.242 -32.579,39.333 -45.675,59.689c-9.649,15.026 -19.896,32.671 -21.596,37.175c-1.838,4.824 -1.563,11.028 0.643,15.99c0.597,1.287 16.588,23.757 35.566,49.949l34.509,47.605l-1.379,4.043c-3.63,10.753 -7.766,27.755 -10.798,44.481c-0.919,5.054 -1.7,9.19 -1.7,9.236c-0.046,-0 -16.129,8.547 -35.704,18.931c-19.575,10.385 -42.413,22.47 -50.776,26.927c-8.317,4.412 -16.22,8.869 -17.507,9.834c-2.803,2.16 -5.882,6.663 -6.984,10.155c-1.425,4.687 -0.69,22.47 1.976,46.226c2.848,25.503 7.949,51.281 14.979,75.819c5.561,19.345 16.129,48.156 21.413,58.265c2.849,5.377 8.823,9.788 14.843,10.891c1.378,0.275 28.397,1.378 59.965,2.527c31.614,1.149 57.668,2.16 57.99,2.298c0.276,0.091 2.022,2.389 3.814,5.054c7.26,10.844 18.794,25.411 28.811,36.347l4.825,5.284l-11.074,56.612c-7.031,36.025 -11.075,57.622 -11.075,59.368c0,3.308 0.828,6.525 2.482,9.787c2.251,4.412 4.319,6.25 18.426,16.267c40.62,28.811 85.193,50.224 132.338,63.55c12.039,3.446 16.129,4.365 19.069,4.365c4.825,0 10.615,-2.114 14.061,-5.146c0.919,-0.828 18.702,-21.046 39.564,-45.032l37.909,-43.515l2.849,0.321c3.125,0.368 43.424,0.46 51.924,0.092l5.515,-0.23l37.679,43.837c25.319,29.409 38.461,44.343 39.931,45.354c5.698,3.905 11.304,4.641 21,2.711c18.288,-3.63 39.15,-10.018 58.357,-17.875c6.984,-2.849 8.547,-3.86 11.626,-7.122c8.041,-8.731 7.811,-21.597 -0.552,-29.96c-4.503,-4.503 -10.339,-6.709 -16.588,-6.25c-2.941,0.184 -4.963,0.782 -13.096,3.998c-15.623,6.112 -38.92,13.418 -40.207,12.637c-0.276,-0.138 -16.772,-19.254 -36.669,-42.413c-19.942,-23.159 -37.128,-42.918 -38.23,-43.929c-1.057,-0.965 -3.217,-2.343 -4.779,-3.078c-4.458,-2.068 -6.985,-2.252 -18.656,-1.471c-14.153,0.965 -45.078,1.057 -56.749,0.138c-11.58,-0.919 -16.405,-0.873 -19.392,0.138c-5.789,2.022 -5.422,1.654 -44.664,46.778c-20.31,23.343 -37.22,42.78 -37.541,43.147c-0.781,0.781 -1.471,0.644 -13.74,-3.262c-33.681,-10.753 -64.33,-25.595 -95.899,-46.502c-8.914,-5.882 -10.43,-7.031 -10.247,-7.858c0.138,-0.551 5.009,-25.273 10.845,-54.957c11.396,-57.99 11.533,-58.771 9.879,-63.871c-1.424,-4.274 -2.941,-6.387 -9.512,-13.188c-15.117,-15.623 -26.927,-30.419 -37.771,-47.467c-4.917,-7.628 -7.122,-10.247 -10.569,-12.499c-4.962,-3.17 -2.389,-2.986 -62.814,-5.192c-30.19,-1.103 -56.152,-2.114 -57.622,-2.16l-2.712,-0.138l-2.481,-6.433c-13.509,-35.336 -22.148,-73.797 -25.64,-114.187c-0.69,-7.95 -0.69,-8.501 0.046,-9.052c0.413,-0.322 22.883,-12.315 49.948,-26.652c50.913,-27.019 51.924,-27.616 55.003,-32.073c2.297,-3.355 3.125,-6.204 4.825,-17.094c3.906,-24.4 8.317,-42.458 14.336,-58.495c2.068,-5.376 2.574,-7.352 2.757,-10.339c0.276,-4.136 -0.551,-8.363 -2.297,-11.488c-0.597,-1.011 -16.129,-22.608 -34.509,-47.972l-33.452,-46.181l0.735,-1.516c1.333,-2.757 13.096,-21.367 18.288,-28.903c17.048,-24.63 36.577,-47.375 56.612,-65.985c4.87,-4.549 6.662,-5.928 7.352,-5.744c0.551,0.138 23.618,10.293 51.281,22.562c27.662,12.314 51.418,22.699 52.797,23.113c1.746,0.505 3.768,0.643 6.893,0.505c5.284,-0.229 6.571,-0.735 15.944,-6.433c19.759,-11.993 37.037,-20.31 55.739,-26.789c4.181,-1.424 8.592,-3.262 9.879,-4.09c3.217,-2.067 6.066,-5.33 7.674,-8.684c0.781,-1.746 7.03,-24.262 15.945,-57.76l14.658,-54.911l6.157,-0.781c30.787,-3.814 64.102,-4.504 97.14,-1.93c10.385,0.827 28.214,2.757 28.581,3.078c0.092,0.138 6.847,24.906 14.888,55.095c8.823,32.901 15.256,55.968 16.037,57.714c1.608,3.446 5.56,7.72 8.685,9.466c1.286,0.689 5.882,2.435 10.339,3.952c20.723,7.03 35.795,14.199 55.003,26.284c3.216,1.975 6.938,4.043 8.271,4.595c3.124,1.148 8.639,1.562 11.901,0.873c2.022,-0.414 49.489,-21.046 98.564,-42.734c4.044,-1.792 7.582,-3.263 7.95,-3.263c0.873,0 21.918,20.908 29.638,29.546c18.334,20.448 34.463,42.045 48.754,65.25l4.457,7.261l-1.563,2.159c-0.827,1.195 -15.899,21.597 -33.406,45.354c-17.553,23.756 -32.441,44.25 -33.176,45.491c-0.689,1.286 -1.562,3.538 -1.976,5.054c-1.333,5.193 -0.781,9.053 2.389,17.002c6.066,15.026 11.029,36.255 14.153,60.609c0.69,5.284 1.654,10.752 2.114,12.131c1.195,3.4 3.262,6.571 5.882,8.96c1.608,1.379 15.853,9.099 52.016,28.076c27.386,14.383 49.994,26.33 50.224,26.514c0.505,0.459 -0.184,9.282 -1.608,21.78c-4.549,39.426 -13.096,72.786 -27.938,108.903c-4.274,10.431 -5.055,13.74 -4.274,18.518c2.849,17.232 23.297,24.354 36.026,12.591c3.308,-3.079 4.181,-4.549 7.673,-12.774c18.197,-43.148 29.271,-89.42 33.36,-139.415c1.425,-17.874 1.609,-23.021 0.92,-26.283c-0.92,-4.458 -2.803,-7.996 -5.974,-11.166c-2.619,-2.62 -5.147,-3.998 -48.708,-26.882c-25.273,-13.279 -48.478,-25.41 -51.51,-26.973l-5.606,-2.895l-0.322,-2.619c-1.838,-15.393 -7.077,-39.104 -11.763,-53.348l-1.425,-4.32l1.057,-1.424c15.623,-21.138 65.066,-88.271 66.674,-90.615c2.849,-4.044 4.09,-8.041 4.09,-12.866c-0,-4.963 -0.735,-7.123 -5.238,-15.21c-23.987,-43.102 -55.739,-83.63 -91.764,-117.128c-15.439,-14.337 -18.334,-16.542 -23.665,-17.967c-3.308,-0.919 -8.408,-0.781 -11.579,0.23c-1.471,0.459 -25.824,11.028 -54.13,23.481c-28.306,12.452 -51.832,22.745 -52.246,22.837c-0.459,0.138 -3.262,-1.149 -6.525,-3.033c-15.21,-8.638 -32.027,-16.496 -46.042,-21.413l-2.298,-0.827l-15.072,-56.335c-8.317,-30.971 -15.669,-57.576 -16.358,-59.093c-2.941,-6.571 -9.098,-10.982 -17.232,-12.36c-11.028,-1.884 -35.336,-4.55 -53.532,-5.836c-6.709,-0.46 -50.776,-0.919 -56.749,-0.598Z" style="fill-rule:nonzero;"/><path d="M536.474,614.818c-17.967,1.287 -47.099,6.111 -52.108,8.731c-2.16,1.102 -4.733,3.86 -6.065,6.433c-1.517,2.987 -1.517,8.087 0.045,11.258c0.874,1.838 14.521,15.807 67.732,69.293l66.674,66.996l-0.138,3.768c-0.321,9.604 -3.63,24.078 -8.133,35.244c-12.59,31.385 -36.99,51.925 -72.188,60.839c-6.48,1.654 -17.554,3.538 -21.322,3.63l-3.17,0.092l-65.756,-66.169c-73.061,-73.567 -68.328,-69.156 -74.578,-69.156c-5.422,0 -9.971,2.803 -12.222,7.536c-1.379,2.849 -4.458,14.567 -6.479,24.63c-9.282,46.226 -3.768,91.028 16.266,131.695c11.855,24.124 28.26,45.674 48.478,63.779c27.525,24.584 56.244,39.334 91.258,46.87c14.153,3.032 26.054,4.365 42.045,4.733c17.599,0.367 32.763,-0.919 48.616,-4.136l7.306,-1.516l158.943,158.438c175.256,174.704 160.92,160.965 167.215,160.919c5.376,-0.046 9.787,-2.849 12.177,-7.812c1.516,-3.124 1.562,-7.719 0.046,-11.12c-0.965,-2.114 -21.643,-22.883 -163.631,-164.549c-124.388,-124.067 -163.033,-162.344 -164.641,-163.125c-3.768,-1.838 -6.203,-1.746 -14.842,0.368c-8.731,2.113 -15.256,3.308 -24.997,4.503c-9.374,1.149 -33.268,1.149 -42.734,-0c-30.466,-3.676 -55.095,-12.361 -77.197,-27.111c-27.157,-18.197 -48.432,-42.045 -62.769,-70.397c-17.232,-34.141 -22.516,-69.936 -16.221,-109.73c0.322,-1.93 0.69,-3.538 0.828,-3.538c0.137,0 27.248,27.111 60.241,60.287c52.016,52.292 60.287,60.425 62.447,61.39c2.343,1.103 2.803,1.149 8.271,0.873c6.847,-0.321 14.474,-1.286 22.929,-2.894c44.71,-8.455 77.795,-32.166 96.359,-69.064c9.466,-18.886 15.439,-44.251 14.842,-63.045c-0.138,-4.87 -0.322,-5.973 -1.241,-7.765c-0.781,-1.425 -19.391,-20.402 -60.517,-61.712c-32.717,-32.763 -59.46,-59.782 -59.46,-60.012c0,-0.781 15.807,-2.251 28.03,-2.619c52.613,-1.608 98.794,16.175 132.797,51.097c25.503,26.192 40.253,56.244 46.87,95.486c2.022,12.039 2.803,20.034 3.079,32.671c0.413,17.047 -0.965,31.43 -4.228,44.526c-2.022,8.087 -2.067,10.706 -0.229,14.337c1.194,2.435 20.448,21.78 163.216,164.319c89.053,88.823 162.574,161.884 163.401,162.298c5.882,3.033 13.831,0.965 17.461,-4.549c2.665,-3.998 3.033,-9.144 0.965,-13.418c-0.735,-1.562 -40.299,-41.355 -159.495,-160.414c-109.132,-109.04 -158.392,-158.529 -158.208,-159.035c0.506,-1.24 2.482,-13.555 3.309,-20.264c1.011,-8.409 1.148,-36.117 0.229,-45.032c-3.17,-30.603 -9.787,-55.692 -20.54,-78.024c-23.251,-48.156 -64.33,-84.228 -114.83,-100.816c-13.877,-4.549 -28.582,-7.628 -45.078,-9.374c-7.766,-0.827 -30.833,-1.194 -39.058,-0.643Z" style="fill-rule:nonzero;"/><path d="M1452.96,293.669c0,0.276 -23.986,136.657 -53.303,303.044c-29.316,166.388 -53.302,302.632 -53.302,302.769c-0,0.138 45.491,0.23 101.091,0.23c55.6,0 101.092,-0.138 101.092,-0.276c-0,-0.137 23.986,-136.381 53.302,-302.768c29.317,-166.388 53.303,-302.769 53.303,-302.999c0,-0.368 -30.603,-0.506 -101.091,-0.506c-72.924,0 -101.092,0.138 -101.092,0.506Z" style="fill-rule:nonzero;"/><path d="M1722.46,293.715c-0.092,0.321 -24.078,136.427 -53.303,302.493c-29.225,166.02 -53.257,302.264 -53.349,302.677c-0.229,0.781 4.779,0.827 100.862,0.827c55.646,0 101.137,-0.046 101.183,-0.138c0,-0.046 20.035,-113.728 44.481,-252.59l44.48,-252.499l101.091,-0.138c96.175,-0.092 101.138,-0.046 100.954,0.689c-0.092,0.459 -20.035,113.728 -44.296,251.718c-24.262,137.99 -44.205,251.35 -44.343,251.901l-0.23,1.057l101.092,0c55.6,0 101.091,-0.046 101.091,-0.138c0.046,-0.046 20.035,-113.728 44.527,-252.59l44.434,-252.499l75.864,-0.138l75.865,-0.092l20.586,25.043c11.35,13.785 20.678,25.227 20.77,25.457c0.091,0.321 -78.898,450.592 -79.633,453.9l-0.23,1.057l202.183,0l0.23,-1.057c0.735,-3.308 79.724,-453.579 79.632,-453.9c-0.091,-0.23 -28.121,-34.417 -62.355,-76.003l-62.171,-75.589l-429.593,0c-343.297,0 -429.638,0.138 -429.822,0.552Z" style="fill-rule:nonzero;"/><path d="M2862.73,368.798c-48.892,41.586 -89.053,75.957 -89.237,76.37c-0.367,0.827 -79.862,452.614 -79.862,453.809c0,0.689 32.533,0.735 353.682,0.643l353.729,-0.138l26.743,-150.948c14.704,-83.032 26.743,-151.223 26.789,-151.545c0,-0.413 -40.712,-0.551 -202.137,-0.551l-202.137,-0l-0.551,3.17c-0.276,1.746 -4.274,24.446 -8.915,50.454l-8.363,47.237l101,0.138c80.322,0.092 101,0.23 101,0.69c-0,0.275 -3.998,22.975 -8.869,50.407l-8.822,49.857l-151.684,0.138l-151.683,0.092l0.644,-3.538c0.367,-1.976 14.336,-81.609 31.108,-176.957l30.419,-173.325l59.461,-50.546l252.82,-0l-0.275,1.24c-0.138,0.736 -4.09,22.976 -8.777,49.535c-4.687,26.514 -8.639,48.708 -8.731,49.259l-0.229,1.057l202.182,0l0.23,-1.057c0.092,-0.551 8.088,-45.583 17.737,-100.034c9.604,-54.452 17.599,-99.483 17.737,-100.081l0.23,-1.011l-278.139,0.046l-278.186,0l-88.914,75.589Z" style="fill-rule:nonzero;"/><path d="M1654.45,954.945c-0.092,0.322 -4.871,27.249 -10.569,59.874c-5.744,32.579 -10.477,59.322 -10.477,59.322c-0.046,0.046 -2.435,2.068 -5.284,4.503l-5.238,4.411l-46.181,0l0.322,-1.976c0.23,-1.056 2.665,-15.071 5.468,-31.108c2.803,-16.037 5.192,-29.592 5.33,-30.098c0.092,-0.551 2.665,-3.079 5.698,-5.652l5.514,-4.687l27.433,0l1.47,-8.638c0.827,-4.733 1.471,-8.869 1.471,-9.191c-0,-0.413 -4.871,-0.551 -22.746,-0.551l-22.745,0l-12.269,10.431c-6.801,5.744 -14.107,11.947 -16.359,13.831c-2.205,1.884 -4.089,3.86 -4.227,4.411c-0.138,0.552 -3.309,18.748 -7.123,40.483c-3.813,21.734 -6.984,39.885 -7.076,40.298c-0.184,0.782 2.481,0.828 50.5,0.828l50.683,-0l15.991,-13.602c8.823,-7.49 16.083,-13.739 16.129,-13.923c0.276,-0.735 20.816,-117.725 20.816,-118.553c-0,-0.965 -0.092,-0.965 -18.151,-0.965c-14.153,0 -18.242,0.138 -18.38,0.552Z" style="fill-rule:nonzero;"/><path d="M1985.35,955.634c-0.506,2.527 -20.448,116.209 -20.586,117.358c-0.092,1.011 1.884,3.676 11.074,14.842l11.166,13.602l46.18,-0l1.425,-8.226c0.827,-4.503 1.47,-8.638 1.47,-9.19l0,-0.965l-27.478,0l-7.352,-9.006l5.468,-31.2c2.986,-17.186 5.56,-31.706 5.698,-32.304l0.229,-1.011l36.669,0l0.735,-4.043c2.022,-11.212 2.435,-13.877 2.206,-14.107c-0.138,-0.138 -8.409,-0.23 -18.335,-0.23l-18.15,0l0.276,-1.287c0.137,-0.689 1.516,-8.363 3.032,-17.093c1.517,-8.731 2.895,-16.405 3.033,-17.14l0.276,-1.241l-36.761,0l-0.275,1.241Z" style="fill-rule:nonzero;"/><path d="M1366.11,991.384c0,0.138 -4.319,24.859 -9.649,54.957c-5.285,30.097 -9.65,54.819 -9.65,54.911c0,0.092 8.271,0.184 18.38,0.184c10.11,-0 18.381,-0.092 18.381,-0.184c-0,-0.092 4.365,-24.814 9.649,-54.911c5.331,-30.144 9.65,-54.865 9.65,-54.957c-0,-0.138 -8.271,-0.23 -18.38,-0.23c-10.11,0 -18.381,0.092 -18.381,0.23Z" style="fill-rule:nonzero;"/><path d="M1415.1,991.705c-0.322,0.965 -19.162,108.536 -19.116,109.133c0,0.46 3.952,0.598 18.289,0.598l18.242,-0l8.041,-45.859l8.088,-45.813l22.791,-0.138l22.838,-0.092l2.665,3.079c1.47,1.746 3.262,3.86 3.952,4.779l1.24,1.654l-7.122,40.483c-3.906,22.24 -7.122,40.804 -7.122,41.171c-0,0.644 2.021,0.736 18.288,0.736l18.242,-0l7.077,-40.345c3.906,-22.148 7.122,-40.758 7.122,-41.356c0.046,-0.735 -3.492,-5.376 -11.212,-14.796l-11.258,-13.785l-50.454,0c-39.931,0 -50.453,0.138 -50.591,0.551Z" style="fill-rule:nonzero;"/><path d="M1697.23,991.522c-0.368,0.643 -14.566,81.608 -14.429,82.343c0.092,0.414 5.101,6.755 11.166,14.153l11.029,13.418l101.275,-0l0.459,-2.436c0.736,-3.722 18.886,-106.835 18.886,-107.386c0,-0.598 -36.117,-0.644 -36.485,-0.046c-0.138,0.183 -3.768,20.402 -8.087,44.893c-4.274,24.492 -7.904,44.986 -8.041,45.537l-0.23,1.057l-23.113,0l-23.068,-0.046l-3.538,-4.319c-1.976,-2.389 -3.584,-4.641 -3.584,-5.009c0,-0.367 3.217,-18.885 7.122,-41.125c3.906,-22.241 7.123,-40.667 7.123,-40.897c-0,-0.597 -36.118,-0.689 -36.485,-0.137Z" style="fill-rule:nonzero;"/><path d="M1850.66,1004.07c-8.317,7.077 -15.715,13.418 -16.404,14.107c-1.103,1.149 -1.425,2.527 -4.963,22.837c-2.068,11.856 -3.86,22.057 -3.998,22.608l-0.229,1.057l92.085,0l-0.23,1.011c-0.138,0.597 -0.505,2.665 -0.827,4.687l-0.597,3.63l-5.331,4.503l-5.284,4.503l-41.448,0.046l-41.493,0l-0.23,1.011c-0.275,1.333 -2.987,16.772 -2.987,17.094c0,0.138 22.792,0.276 50.684,0.276l50.638,-0.046l16.082,-13.648l16.037,-13.647l2.436,-13.555c1.332,-7.444 2.389,-13.694 2.435,-13.924c-0,-0.183 -20.678,-0.321 -45.905,-0.321l-45.95,-0l0.275,-1.517c0.092,-0.781 1.195,-6.938 2.344,-13.647l2.159,-12.177l5.515,-4.687l5.514,-4.733l45.812,0l-0.275,1.241c-0.138,0.735 -0.781,4.273 -1.425,7.949c-0.643,3.676 -1.286,7.215 -1.424,7.904l-0.276,1.287l36.761,-0l0.275,-1.287c0.368,-1.746 6.25,-34.969 6.25,-35.244c-0,-0.138 -22.7,-0.23 -50.408,-0.23l-50.454,0l-15.164,12.912Z" style="fill-rule:nonzero;"/><path d="M2076.05,1005.08l-16.266,13.877l-6.985,39.518c-3.814,21.734 -7.076,40.298 -7.26,41.217l-0.322,1.747l36.715,-0l0.459,-2.206c0.23,-1.195 3.539,-19.713 7.261,-41.172l6.846,-39.058l5.514,-4.687l5.514,-4.733l22.93,-0.046l22.929,0l-0.276,1.241c-0.137,0.735 -1.24,6.938 -2.435,13.877l-2.206,12.591l-5.284,4.503l-5.238,4.549l-13.969,-0c-7.628,-0 -13.923,0.184 -13.923,0.413c-0,0.46 -2.665,15.394 -2.987,16.91l-0.23,1.057l18.334,0l4.412,13.647c2.435,7.536 5.1,15.762 5.927,18.289l1.517,4.595l18.426,0.138l18.426,0.092l0.46,-2.39c0.275,-1.332 0.919,-4.917 1.424,-7.949c0.506,-3.033 1.057,-6.066 1.195,-6.755l0.23,-1.241l-9.374,-0.275l-2.941,-9.053l-2.895,-9.052l-4.319,-0.138l-4.274,-0.138l31.798,-27.111l3.768,-21.137c2.022,-11.625 3.86,-22.01 4.044,-23.113l0.275,-1.93l-50.453,0l-50.454,0.046l-16.313,13.877Z" style="fill-rule:nonzero;"/><path d="M2205.45,992.395c-0.138,0.735 -0.781,4.365 -1.424,8.179c-0.689,3.768 -1.333,7.352 -1.471,7.903l-0.229,1.057l36.806,0l0.46,-2.435c0.275,-1.287 0.919,-4.871 1.424,-7.904c0.506,-3.032 1.057,-6.065 1.195,-6.8l0.276,-1.241l-36.761,0l-0.276,1.241Z" style="fill-rule:nonzero;"/><path d="M2266.66,1004.53c-8.685,7.352 -16.037,13.601 -16.359,13.923c-0.322,0.321 -3.676,18.196 -7.811,41.769l-7.261,41.218l64.331,-0.092l64.377,-0.138l1.471,-8.042c0.781,-4.411 1.47,-8.5 1.47,-9.098l0.046,-1.011l-45.721,0c-39.977,0 -45.721,-0.092 -45.721,-0.689c0,-2.206 11.12,-63.458 11.58,-63.917c0.321,-0.276 2.803,-2.39 5.56,-4.733l4.916,-4.182l22.746,0c21.551,0 22.746,0.046 22.746,0.827c-0,1.471 -4.641,26.973 -4.963,27.249c-0.184,0.138 -2.527,2.16 -5.238,4.457l-4.871,4.228l-13.923,0.092l-13.923,0.138l-1.517,8.271c-0.827,4.549 -1.47,8.638 -1.516,9.052c-0,0.781 1.378,0.827 23.021,0.827l22.976,0l15.485,-13.142c8.501,-7.26 15.715,-13.417 16.037,-13.693c0.505,-0.46 8.409,-43.515 8.409,-45.767c-0,-0.919 -0.092,-0.919 -50.27,-0.919l-50.316,0l-15.761,13.372Z" style="fill-rule:nonzero;"/><path d="M2198.97,1028.92c-0.275,1.287 -12.636,71.867 -12.636,72.235c-0,0.138 8.225,0.276 18.334,0.276l18.334,-0l0.736,-4.274c5.238,-29.133 12.039,-68.65 11.901,-68.926c-0.092,-0.184 -8.363,-0.321 -18.289,-0.321l-18.15,-0l-0.23,1.01Z" style="fill-rule:nonzero;"/><path d="M1850.25,1118.99c-4.044,21.964 -20.494,116.669 -20.402,117.404c0.091,0.597 5.146,7.122 11.303,14.612l11.166,13.555l22.976,0c12.59,0 22.929,-0.137 22.929,-0.321c0,-0.598 2.803,-16.405 3.033,-17.278c0.23,-0.735 -0.643,-0.781 -13.556,-0.781l-13.785,0l-3.676,-4.503c-2.022,-2.435 -3.722,-4.871 -3.722,-5.422c0,-0.827 9.42,-55.279 10.615,-61.206l0.459,-2.39l36.623,0l0.276,-1.286c0.137,-0.69 0.781,-4.228 1.424,-7.904c0.643,-3.676 1.287,-7.214 1.425,-7.949l0.275,-1.241l-36.944,-0l0.276,-1.287c0.367,-1.654 6.249,-34.876 6.249,-35.198c-0,-0.138 -8.225,-0.276 -18.334,-0.276l-18.335,0l-0.275,1.471Z" style="fill-rule:nonzero;"/><path d="M1365.93,1155.52c-0.414,1.975 -19.116,108.305 -19.116,108.673c0,0.23 8.225,0.367 18.334,0.367l18.335,0l0.275,-1.516c0.138,-0.781 3.676,-20.999 7.858,-44.894c4.181,-23.894 7.72,-43.883 7.812,-44.48l0.229,-1.011l36.761,0l-0.23,1.011c-0.092,0.597 -3.63,20.586 -7.811,44.48c-4.182,23.895 -7.72,44.113 -7.858,44.894l-0.276,1.516l36.761,0l0.275,-1.516c0.138,-0.781 3.677,-20.999 7.858,-44.894c4.182,-23.894 7.72,-43.883 7.812,-44.48l0.229,-1.011l13.923,0l13.878,0.046l3.584,4.319c1.93,2.39 3.538,4.687 3.538,5.101c-0,0.505 -9.098,52.797 -14.061,80.919l-0.276,1.516l36.761,0l0.551,-3.124c0.276,-1.7 3.493,-20.127 7.169,-40.942c3.676,-20.816 6.616,-38.231 6.525,-38.599c-0.092,-0.413 -5.101,-6.8 -11.166,-14.199l-11.029,-13.417l-156.37,-0l-0.275,1.241Z" style="fill-rule:nonzero;"/><path d="M1574.73,1166.73c-7.949,6.846 -15.163,12.958 -15.99,13.647l-1.517,1.241l-7.26,41.125c-3.998,22.608 -7.168,41.264 -7.076,41.448c0.091,0.23 22.791,0.367 50.453,0.367l50.27,0l15.762,-13.371c8.684,-7.352 15.99,-13.602 16.312,-13.923c0.414,-0.414 14.842,-80.414 14.842,-82.436c0,-0.413 -10.752,-0.551 -50.638,-0.505l-50.683,0.046l-14.475,12.361Zm75.819,6.433c0,1.93 -11.212,63.687 -11.626,64.101c-0.321,0.275 -2.757,2.389 -5.514,4.733l-4.916,4.181l-22.7,0c-12.453,0 -22.746,-0.092 -22.837,-0.23c-0.138,-0.091 2.297,-14.612 5.376,-32.257l5.652,-32.028l1.976,-1.654c1.056,-0.873 3.4,-2.895 5.192,-4.457l3.217,-2.849l23.113,0c15.899,-0.046 23.067,0.092 23.067,0.46Z" style="fill-rule:nonzero;"/><path d="M1702.75,1155.75c-0.138,0.827 -4.411,25.089 -9.466,53.9c-5.054,28.812 -9.328,52.936 -9.466,53.625l-0.275,1.286l36.76,0l0.276,-1.286c0.321,-1.562 15.899,-90.155 15.899,-90.431c-0,-0.092 10.431,-0.184 23.113,-0.184l23.159,0l7.352,9.098l-7.03,39.886c-3.86,21.964 -7.169,40.62 -7.306,41.401l-0.276,1.516l36.76,0l0.276,-1.516c0.138,-0.781 3.446,-19.437 7.306,-41.401l7.031,-39.932l-6.479,-7.903c-3.584,-4.319 -8.639,-10.477 -11.258,-13.693l-4.825,-5.836l-101.275,-0l-0.276,1.47Z" style="fill-rule:nonzero;"/><path d="M1940.96,1167.88c-8.73,7.444 -15.991,13.969 -16.22,14.567c-0.184,0.551 -3.447,18.793 -7.215,40.528c-3.814,21.735 -6.984,39.977 -7.122,40.529l-0.23,1.056l73.521,0l0.23,-1.056c0.276,-1.287 2.987,-16.726 2.987,-17.048c-0,-0.138 -8.133,-0.276 -18.105,-0.276c-9.971,0 -18.242,-0.138 -18.334,-0.367c-0.368,-0.69 11.074,-64.056 11.671,-64.653c0.368,-0.276 2.758,-2.343 5.331,-4.503l4.687,-3.998l22.975,0c12.682,0 23.021,0.184 23.021,0.368c0,0.459 -15.531,88.96 -15.853,90.477l-0.229,1.056l36.76,0l0.23,-1.056c0.368,-1.701 19.069,-108.214 19.069,-108.72c0,-0.367 -15.577,-0.505 -50.637,-0.459l-50.684,-0l-15.853,13.555Z" style="fill-rule:nonzero;"/><path d="M2081.84,1168.02l-16.083,13.647l-7.26,41.126c-3.952,22.608 -7.214,41.218 -7.26,41.402c-0,0.23 16.542,0.367 36.714,0.367l36.715,0l0.276,-1.286c0.138,-0.689 0.781,-4.365 1.424,-8.133c0.689,-3.814 1.333,-7.353 1.471,-7.95l0.229,-1.011l-36.898,0l0.276,-1.516c0.183,-0.781 2.711,-15.302 5.698,-32.212l5.376,-30.695l5.238,-4.549l5.284,-4.503l23.114,-0.046c12.682,0 23.067,0.138 23.067,0.322c-0.046,0.23 -3.998,22.883 -8.869,50.454l-8.868,50.086l-5.468,4.687l-5.514,4.733l-41.218,-0c-38.828,-0 -41.218,0.046 -41.448,0.781c-0.229,0.873 -3.032,16.68 -3.032,17.277c-0,0.184 22.699,0.322 50.454,0.322l50.407,0l14.934,-12.682c8.226,-6.985 15.578,-13.326 16.359,-14.107l1.424,-1.471l10.247,-58.127c5.606,-31.982 10.293,-58.679 10.431,-59.414l0.276,-1.241l-50.73,-0l-50.729,0.046l-16.037,13.693Z" style="fill-rule:nonzero;"/><path d="M2238.95,1154.28l-32.165,27.386l-7.214,40.621c-3.952,22.378 -7.215,41.034 -7.215,41.447c-0.046,0.782 3.309,0.827 64.239,0.827l64.239,0l0.322,-1.746c0.138,-0.919 0.873,-5.054 1.562,-9.19l1.333,-7.444l-91.855,0l0.229,-1.286c0.138,-0.69 2.665,-15.164 5.652,-32.166l5.422,-30.971l5.285,-4.549l5.33,-4.549l23.159,0c18.289,0 23.067,0.138 22.93,0.552c-0.138,0.321 -1.241,6.479 -2.482,13.647l-2.251,13.05l-5.514,4.779l-5.515,4.733l-27.34,-0l-0.23,1.011c-0.276,1.332 -2.987,16.772 -2.987,17.093c0,0.138 10.293,0.276 22.884,0.276l22.883,-0l16.267,-13.923l16.266,-13.877l4.044,-22.746c2.206,-12.498 4.044,-22.791 4.044,-22.883c-0,-0.046 -22.792,-0.092 -50.638,-0.092l-50.684,-0Z" style="fill-rule:nonzero;"/><path d="M1377.37,1330.73l-16.128,13.74l-7.031,40.115c-3.86,22.056 -7.122,40.666 -7.26,41.355l-0.23,1.287l128.662,-0l0.276,-1.517c0.138,-0.781 2.205,-12.636 4.641,-26.283c2.389,-13.648 4.503,-25.365 4.641,-26.1l0.275,-1.241l-73.521,0l-0.275,1.241c-0.322,1.562 -3.033,16.726 -3.033,16.956c-0,0.091 8.271,0.183 18.38,0.183l18.381,0l-0.23,1.011c-0.276,1.333 -2.987,16.772 -2.987,17.094c-0,0.138 -12.453,0.276 -27.616,0.276l-27.617,-0l0.23,-1.287c0.138,-0.689 2.665,-15.164 5.652,-32.166l5.422,-30.924l5.422,-4.549l5.377,-4.595l46.088,-0l-0.23,1.01c-0.138,0.598 -0.781,4.136 -1.47,7.95c-0.643,3.768 -1.287,7.444 -1.425,8.133l-0.275,1.287l18.426,-0c10.155,-0 18.426,-0.092 18.426,-0.184c0,-0.276 5.928,-33.728 6.249,-35.336l0.276,-1.241l-50.729,0.046l-50.684,0l-16.083,13.739Z" style="fill-rule:nonzero;"/><path d="M1519.13,1330.09c-8.455,7.168 -15.761,13.418 -16.175,13.877c-0.597,0.598 -2.527,10.845 -7.903,41.448c-3.952,22.378 -7.168,40.942 -7.168,41.263c-0,0.414 3.997,0.552 18.288,0.552l18.288,-0l7.215,-41.218c3.997,-22.654 7.352,-41.356 7.49,-41.539c0.091,-0.184 2.527,-2.298 5.422,-4.733l5.238,-4.411l22.93,0.091l22.929,0.138l-2.39,13.556c-1.332,7.444 -2.435,13.601 -2.435,13.647c-0.046,0.046 -2.435,2.16 -5.422,4.733l-5.33,4.595l-13.694,0c-12.636,0 -13.693,0.046 -13.923,0.781c-0.229,0.873 -3.032,16.68 -3.032,17.278c-0,0.183 4.135,0.321 9.144,0.321l9.144,0l3.17,9.742c1.701,5.376 4.366,13.601 5.882,18.288l2.803,8.501l18.38,0.138l18.381,0.092l1.608,-9.19l1.608,-9.144l-9.19,-0.276l-2.941,-9.052l-2.895,-9.053l-4.549,-0.138l-4.503,-0.137l15.853,-13.51c8.685,-7.398 16.037,-13.923 16.221,-14.474c0.229,-0.506 2.113,-10.569 4.135,-22.332c2.068,-11.764 3.86,-21.735 3.952,-22.195c0.23,-0.735 -2.389,-0.781 -50.454,-0.781l-50.683,0l-15.394,13.142Z" style="fill-rule:nonzero;"/><path d="M1660.66,1329.63c-8.225,6.984 -15.485,13.187 -16.174,13.739c-1.241,1.057 -1.425,1.93 -8.409,41.585c-3.906,22.286 -7.123,40.942 -7.123,41.402c0,0.873 1.241,0.873 50.454,0.873l50.408,-0.046l15.393,-13.096c8.455,-7.214 15.761,-13.464 16.221,-13.923c0.643,-0.643 2.343,-9.42 7.903,-41.218c3.906,-22.194 7.169,-40.758 7.307,-41.218c0.183,-0.735 -2.436,-0.781 -50.454,-0.781l-50.592,0l-14.934,12.683Zm75.819,6.479c-0,1.24 -10.937,62.998 -11.212,63.458c-0.138,0.229 -2.619,2.435 -5.514,4.87l-5.239,4.412l-22.791,-0c-20.77,-0 -22.792,-0.046 -22.792,-0.736c0,-0.413 2.482,-14.934 5.514,-32.211c5.377,-30.649 5.56,-31.476 6.801,-32.533c0.689,-0.552 3.125,-2.619 5.376,-4.549l4.136,-3.492l22.883,-0c21.459,-0 22.838,0.045 22.838,0.781Z" style="fill-rule:nonzero;"/><path d="M1800.53,1330.55c-8.823,7.49 -16.083,13.693 -16.175,13.739c-0.229,0.184 -7.903,44.25 -7.903,45.261c-0,0.919 0.459,0.919 45.721,0.919c33.13,0 45.721,0.138 45.721,0.506c-0,0.275 -0.322,2.343 -0.736,4.549l-0.735,4.044l-5.422,4.641l-5.468,4.641l-41.356,-0c-22.791,-0 -41.401,0.137 -41.401,0.321c-0,0.46 -2.665,15.578 -2.987,17.002l-0.23,1.057l101.138,-0l15.255,-12.958c8.409,-7.077 15.715,-13.326 16.267,-13.877c0.873,-0.827 1.378,-2.941 3.308,-14.107c1.287,-7.214 2.344,-13.372 2.344,-13.648c-0,-0.413 -11.35,-0.551 -45.721,-0.551c-43.424,0 -45.721,-0.046 -45.721,-0.827c-0,-0.965 4.503,-26.789 4.687,-26.973c0.092,-0.046 2.481,-2.114 5.33,-4.549l5.239,-4.411l22.929,-0c18.059,-0 22.929,0.137 22.929,0.551c0,0.322 -0.643,3.998 -1.378,8.179c-0.781,4.182 -1.379,8.042 -1.379,8.639l0,1.011l18.243,-0.092l18.242,-0.138l3.079,-17.461c1.746,-9.604 3.124,-17.829 3.17,-18.289c0,-0.735 -2.711,-0.781 -50.499,-0.781l-50.5,0l-15.991,13.602Z" style="fill-rule:nonzero;"/><path d="M1941.42,1330.55c-8.731,7.444 -15.991,13.923 -16.175,14.336c-0.184,0.414 -2.022,10.385 -4.044,22.148c-2.021,11.764 -3.768,21.827 -3.905,22.378l-0.23,1.057l91.993,0l-0.23,1.011c-0.137,0.598 -0.505,2.619 -0.781,4.549l-0.551,3.493l-5.514,4.687l-5.468,4.641l-82.574,-0l-0.275,1.24c-0.138,0.735 -0.782,4.274 -1.425,7.95c-0.643,3.676 -1.287,7.214 -1.424,7.949l-0.276,1.241l101.091,-0l16.267,-13.785l16.22,-13.786l2.39,-13.233c1.287,-7.261 2.389,-13.464 2.389,-13.786c0.046,-0.413 -9.42,-0.551 -45.95,-0.551c-43.562,0 -45.951,-0.046 -45.721,-0.827c0.092,-0.414 1.149,-6.387 2.343,-13.188c1.149,-6.847 2.252,-12.774 2.436,-13.188c0.183,-0.413 2.665,-2.757 5.468,-5.146l5.192,-4.411l22.976,-0c12.636,-0 22.975,0.137 22.975,0.275c-0,0.322 -2.711,15.761 -2.987,17.048l-0.23,1.057l36.715,-0l0.459,-2.436c0.598,-2.94 6.02,-33.59 6.02,-34.003c-0,-0.184 -22.792,-0.322 -50.638,-0.276l-50.683,0.046l-15.853,13.51Z" style="fill-rule:nonzero;"/></g></g></svg>