<?xml version="1.0" encoding="UTF-8" standalone="no"?>
<svg
   xmlns:dc="http://purl.org/dc/elements/1.1/"
   xmlns:cc="http://creativecommons.org/ns#"
   xmlns:rdf="http://www.w3.org/1999/02/22-rdf-syntax-ns#"
   xmlns:svg="http://www.w3.org/2000/svg"
   xmlns="http://www.w3.org/2000/svg"
   viewBox="0 0 1027.08 164.65334"
   height="164.65334"
   width="1027.08"
   xml:space="preserve"
   id="svg2"
   version="1.1"><metadata
     id="metadata8"><rdf:RDF><cc:Work
         rdf:about=""><dc:format>image/svg+xml</dc:format><dc:type
           rdf:resource="http://purl.org/dc/dcmitype/StillImage" /></cc:Work></rdf:RDF></metadata><defs
     id="defs6" /><g
     transform="matrix(1.3333333,0,0,-1.3333333,0,164.65333)"
     id="g10"><g
       transform="scale(0.1)"
       id="g12"><path
         id="path14"
         style="fill:#ffffff;fill-opacity:1;fill-rule:nonzero;stroke:none"
         d="m 269.793,670.777 h 96.352 c 36.789,0 101.613,1.754 145.41,43.797 24.527,24.524 43.8,64.821 43.8,115.625 0,49.055 -17.519,89.352 -43.8,113.871 -40.293,38.543 -98.106,43.801 -150.664,43.801 h -91.098 z m 141.902,537.833 c 101.614,0 213.735,-14.01 306.586,-96.36 99.86,-87.59 113.871,-203.215 113.871,-283.805 0,-147.156 -56.058,-229.5 -99.855,-275.047 C 639.445,458.793 516.813,450.035 434.473,450.035 H 269.793 V 40.0898 H 0 V 1208.61 h 411.695" /><path
         id="path16"
         style="fill:#ffffff;fill-opacity:1;fill-rule:nonzero;stroke:none"
         d="m 1662.58,980.867 h -390.67 v -226 h 371.4 V 527.121 h -371.4 V 267.836 h 390.67 V 40.0898 H 1002.12 V 1208.61 h 660.46 V 980.867" /><path
         id="path18"
         style="fill:#ffffff;fill-opacity:1;fill-rule:nonzero;stroke:none"
         d="m 2151.4,250.316 h 64.82 c 68.33,0 150.66,1.754 199.72,47.305 24.53,22.774 38.54,56.063 38.54,98.106 0,47.304 -19.27,78.836 -36.79,94.605 -47.3,43.793 -138.4,43.793 -192.71,43.793 h -73.58 z m 0,483.532 h 43.8 c 36.79,0 98.11,5.25 136.65,33.281 24.53,17.523 47.3,52.559 47.3,103.363 0,50.805 -24.53,82.344 -45.55,98.11 -38.54,29.781 -91.1,29.781 -140.15,29.781 h -42.05 z m 91.1,474.762 c 63.07,0 206.73,-3.5 297.82,-89.34 75.34,-71.84 84.1,-169.942 84.1,-220.747 0,-45.546 -7.01,-98.105 -38.54,-148.91 -29.79,-49.05 -70.08,-73.582 -98.11,-85.847 56.06,-8.758 119.13,-36.789 161.17,-78.836 38.55,-38.535 75.34,-105.11 75.34,-208.473 0,-117.379 -45.55,-190.957 -91.1,-236.508 C 2536.82,47.0898 2396.67,40.0898 2324.84,40.0898 H 1885.11 V 1208.61 h 357.39" /><path
         id="path20"
         style="fill:#ffffff;fill-opacity:1;fill-rule:nonzero;stroke:none"
         d="M 3512.67,467.555 3369.02,859.98 3223.6,467.555 Z m 73.58,-206.723 H 3144.77 L 3055.42,40.0898 H 2775.11 L 3246.38,1208.61 H 3493.4 L 3954.15,40.0898 h -280.3 l -87.6,220.7422" /><path
         id="path22"
         style="fill:#ffffff;fill-opacity:1;fill-rule:nonzero;stroke:none"
         d="m 4355.36,721.582 399.43,487.028 h 329.36 L 4611.14,655.008 5120.94,40.0898 H 4774.07 L 4355.36,558.652 V 40.0898 H 4085.57 V 1208.61 h 269.79 V 721.582" /><path
         id="path24"
         style="fill:#ffffff;fill-opacity:1;fill-rule:nonzero;stroke:none"
         d="m 5476.63,886.262 c -50.8,-49.055 -103.37,-134.895 -103.37,-264.535 0,-106.872 35.05,-192.711 106.88,-262.789 75.33,-71.829 159.42,-96.36 250.51,-96.36 119.14,0 203.22,43.801 259.28,99.863 45.56,43.797 101.62,126.137 101.62,261.032 0,120.882 -49.05,210.23 -101.62,262.789 -57.81,56.062 -150.65,99.859 -257.52,99.859 -101.62,0 -192.71,-36.793 -255.78,-99.859 z m 709.53,178.698 c 110.36,-106.866 182.19,-261.042 182.19,-441.487 0,-155.918 -56.06,-315.34 -182.19,-437.973 -108.63,-105.1211 -255.78,-171.6914 -452,-171.6914 -218.99,0 -367.9,87.6014 -455.49,171.6914 -112.12,105.109 -182.21,262.785 -182.21,434.473 0,168.183 75.34,338.121 180.45,443.227 78.83,78.84 224.24,171.69 457.25,171.69 182.19,0 334.62,-56.06 452,-169.93" /><path
         id="path26"
         style="fill:#ffffff;fill-opacity:1;fill-rule:nonzero;stroke:none"
         d="m 6428.14,157.27 c 44.08,0 78.65,-34.571 78.65,-78.6411 C 6506.79,34.5703 6472.22,0 6428.14,0 c -44.05,0 -78.62,34.5703 -78.62,78.6289 0,44.0701 34.57,78.6411 78.62,78.6411" /><path
         id="path28"
         style="fill:#ffffff;fill-opacity:1;fill-rule:nonzero;stroke:none"
         d="m 6810.6,338.227 c -20.12,-19.153 -33.54,-46.95 -33.54,-81.45 0,-31.617 13.42,-59.406 33.54,-78.578 21.09,-20.121 47.91,-29.699 71.87,-29.699 25.89,0 56.56,10.539 78.58,31.609 16.29,15.34 31.63,41.211 31.63,76.668 0,36.418 -14.38,61.328 -30.66,78.578 -22.06,22.993 -47.92,31.618 -77.61,31.618 -27.8,0 -51.76,-7.657 -73.81,-28.746 z M 7122.05,44.0391 h -138.01 v 51.75 c -21.05,-30.6602 -59.39,-66.1289 -135.1,-66.1289 -63.24,0 -109.25,20.1406 -146.62,58.4609 -44.08,44.0779 -67.07,105.4099 -67.07,171.5239 0,70.921 25.86,129.367 67.07,168.656 37.37,35.469 90.09,57.512 148.52,57.512 46.98,0 98.7,-15.336 133.2,-62.297 v 319.109 h 138.01 V 44.0391" /><path
         id="path30"
         style="fill:#ffffff;fill-opacity:1;fill-rule:nonzero;stroke:none"
         d="m 7575.66,316.188 c -0.97,3.835 -7.68,30.664 -27.8,49.832 -15.31,14.382 -37.37,23.96 -65.16,23.96 -35.44,0 -56.53,-14.382 -69.94,-27.796 -10.55,-11.496 -20.12,-26.829 -23.96,-45.996 z m 127.43,-82.399 H 7384 c 0,-23.008 8.64,-53.68 25.89,-72.84 21.05,-23 49.82,-26.828 70.9,-26.828 20.12,0 41.21,3.828 55.56,12.457 1.94,0.953 18.22,11.5 29.73,35.453 l 130.3,-13.41 C 7677.23,108.238 7638.89,76.6211 7614,61.2891 7572.79,36.3789 7526.77,29.6602 7478.86,29.6602 c -64.2,0 -120.73,11.5117 -170.58,61.3281 -37.37,37.3907 -64.19,93.9097 -64.19,164.8357 0,61.328 22.05,124.578 65.16,168.656 51.75,51.739 115.95,61.333 163.87,61.333 47.92,0 116.92,-8.629 169.61,-64.219 50.78,-53.653 60.36,-120.739 60.36,-173.442 v -14.363" /></g></g></svg>