<svg xmlns="http://www.w3.org/2000/svg" viewBox="0 0 2445 573" width="2445" height="573">
	<style>
		tspan { white-space:pre }
		.shp0 { fill: #2c2e35 } 
		.shp1 { fill: #85878b } 
		.shp2 { fill: #ff2e17 } 
	</style>
	<path id="Path 1" fill-rule="evenodd" class="shp0" d="M139.11 407.61C136.11 424.79 136.53 426.04 153.3 426.04L345.8 426.04C346.72 447.95 352.61 469.06 367.06 486.34L98.81 486.34C52.38 486.34 40.99 475.03 48.19 434.1L78.82 260L164.9 260L139.11 407.61ZM756.61 419.27L468.05 419.27C465.47 433.78 475.14 435.07 492.87 435.07L750.53 435.07L741.5 486.34L475.14 486.34C414.85 486.34 370.92 472.78 385.18 391.87C398.32 317.37 452.57 303.85 506.41 303.85L691.81 303.85C750.16 303.85 776.28 334.15 766.93 387.35C764.67 399.6 758.87 415.72 756.61 419.27ZM681.17 371.87C683.74 357.37 675.36 353.82 657.63 353.82L509.32 353.82C488.04 353.82 478.69 358.66 476.43 371.87L681.17 371.87ZM795.14 486.34L826.73 305.78L912.82 305.78L881.22 486.34L795.14 486.34ZM931.82 486.33L963.42 305.78L1231.35 305.78C1277.77 305.78 1324.52 319.32 1313.56 380.9L1295.18 486.33L1209.1 486.33L1223.29 404.76C1228.44 376.39 1215.87 366.07 1180.4 366.07L1038.86 366.07L1017.91 486.33L931.82 486.33ZM1782.82 369.94C1789.27 333.51 1820.22 305.78 1862.46 305.78L2063.65 305.78L2053.01 366.07L1886.96 366.07C1875.03 366.07 1868.26 374.46 1866.33 385.1L1848.59 486.33L1762.51 486.33L1782.82 369.94Z" />
	<path id="Path 2" fill-rule="evenodd" class="shp1" d="M232.82 155.61C258.24 155.61 261.96 169.65 258.84 187.53L249.91 238.37L115.07 238.37C93.06 238.37 77.6 235.26 81.91 211.32C85.63 190.19 103.03 185.31 120.27 185.31C125.62 185.31 214.08 185.31 218.1 186.2C219.14 179.85 217.06 179.11 209.92 179.11L107.34 179.11L111.5 155.61L232.82 155.61ZM214.38 207.04L130.98 207.04C127.11 207.04 123.54 208.07 122.8 211.77C122.2 215.31 124.43 216.79 128.75 216.79L212.6 216.79L214.38 207.04ZM414.53 155.61L454.22 155.61L439.65 238.37L317.59 238.37C296.33 238.37 274.48 233.34 279.53 205.26L288.3 155.61L328 155.61L320.86 195.66C318.33 210.29 327.85 210.58 341.08 210.58L404.86 210.58L414.53 155.61ZM518.03 210.58L606.19 210.58L601.29 238.37L496.77 238.37C476.25 238.37 465.4 228.46 468.67 210.44L482.05 134.77L521.75 134.77C521.75 134.77 519.52 147.04 518.03 155.61C524.13 155.61 603.67 155.61 603.67 155.61L598.76 183.24C598.76 183.24 519.22 183.24 513.13 183.24C511.64 191.82 510 201.13 510 201.13C508.81 208.07 512.23 210.58 518.03 210.58ZM766.49 154.58C783.29 154.58 807.68 161.52 803.07 187.38L799.8 206.15C795.19 232.01 769.91 239.1 753.11 239.1L660.04 239.1C643.24 239.1 620.35 232.01 624.96 206.15L628.23 187.38C632.84 161.52 659.6 154.58 676.4 154.58L766.49 154.58ZM741.81 211.32C751.63 211.32 759.8 207.63 761.29 199.2L762.18 194.48C763.97 184.43 755.34 182.21 745.53 182.21L687.85 182.21C678.03 182.21 668.37 185.17 666.73 194.48L665.84 199.2C664.36 207.92 671.34 211.32 681.16 211.32L741.81 211.32Z" />
	<path id="Path 3" fill-rule="evenodd" class="shp0" d="M1154.2 190.04L1145.83 238.37L1104.64 238.37L1111.11 200.98C1113.17 189.75 1110.95 183.24 1094.14 183.24C1094.14 183.24 1023.03 183.24 1022.87 183.24C1020.96 194.03 1013.33 238.37 1013.33 238.37L972.14 238.37L990.21 134.77L1031.4 134.77C1031.4 134.77 1029.19 147.04 1027.72 155.61C1027.88 155.61 1117.19 155.61 1117.19 155.61C1142.02 155.61 1158.9 163.29 1154.2 190.04ZM1325.77 155.61C1352.15 155.61 1356.12 169.65 1353.04 187.53L1344.23 238.37L1204.32 238.37C1181.49 238.37 1165.42 235.26 1169.69 211.32C1173.36 190.19 1191.37 185.31 1209.26 185.31C1214.81 185.31 1306.59 185.31 1310.76 186.2C1311.79 179.85 1309.62 179.11 1302.22 179.11L1195.78 179.11L1199.9 155.61L1325.77 155.61ZM1307.09 207.04L1220.55 207.04C1216.54 207.04 1212.85 208.07 1212.11 211.77C1211.53 215.31 1213.85 216.79 1218.32 216.79L1305.32 216.79L1307.09 207.04ZM1514.3 155.61L1555.48 155.61L1541.08 238.37L1414.44 238.37C1392.39 238.37 1369.67 233.34 1374.67 205.26L1383.34 155.61L1424.52 155.61L1417.47 195.66C1414.97 210.29 1424.85 210.58 1438.57 210.58L1504.75 210.58L1514.3 155.61ZM1706.17 185.9C1738.72 185.9 1747.72 192.41 1744.34 211.91C1741.85 226.54 1732.39 238.37 1707.25 238.37L1564.41 238.37L1568.52 214.13L1697.01 214.13C1700.86 214.13 1702.71 213.39 1703.15 210.73C1703.74 207.48 1700.19 207.63 1694.95 207.63L1603.17 207.63C1576.94 207.63 1568.55 200.24 1571.78 182.06C1573.84 169.8 1582.04 155.61 1606.57 155.61L1741.54 155.61L1737.43 179.7L1618.19 179.7C1612.18 179.7 1608.84 185.9 1618.86 185.9L1706.17 185.9Z" />
	<path id="Path 4" class="shp2" d="M916.25 283.21L942.27 134.52L856.18 134.52L830.16 283.21L916.25 283.21Z" />
	<path id="Path 5" fill-rule="evenodd" class="shp0" d="M2116.08 328.98L2161.32 328.98L2157.68 350.67C2155.85 361.74 2150.99 367.14 2142.91 367.14L2098.8 367.14C2090.67 367.14 2087.62 361.74 2089.46 350.67L2094.26 322.09C2096.09 311.03 2100.95 305.62 2109.08 305.62L2159.12 305.62L2156.39 321.92L2113.47 321.92C2110.59 321.92 2108.85 324.79 2108.42 327.58L2105.04 347.62C2104.44 351.37 2105.29 353.46 2108.17 353.46L2137.99 353.46C2140.87 353.46 2142.53 351.02 2143.1 347.62C2143.1 347.62 2143.26 346.84 2143.93 342.65C2141.39 342.65 2113.77 342.65 2113.77 342.65L2116.08 328.98ZM2195.16 317.39C2202.39 317.39 2209.62 320.7 2209 332.29C2212.12 321.31 2217.7 317.39 2227.24 317.39C2240.97 317.39 2250.33 322.88 2247.1 342.13L2243.03 366.7L2227.95 366.7L2231.51 345.44C2233.01 336.29 2230.87 332.98 2224.72 332.98C2217.83 332.98 2213.86 340.75 2212.07 350.93L2209.22 367.12L2195.83 367.12L2198.19 353.89C2200.31 341.97 2198.85 332.98 2190.04 332.98L2184.96 332.98L2179.32 366.7L2164.18 366.7L2172.4 317.39L2195.16 317.39ZM2252.13 366.7L2262.33 305.62L2277.87 305.62C2277.87 305.62 2276.63 312.86 2275.8 317.91L2308.33 317.91C2319.01 317.91 2325.42 323.57 2322.04 343.7C2319.81 356.86 2312.9 366.7 2305.28 366.7L2252.13 366.7ZM2273.07 333.64L2270.4 350.89L2298.07 350.89C2303.1 350.89 2305.24 347.7 2306.2 342.04C2307.14 336.46 2305.6 333.64 2300.74 333.64L2273.07 333.64ZM2384.26 327.32C2385.17 321.92 2387.9 305.62 2387.9 305.62L2402.98 305.62L2392.78 366.7L2377.7 366.7C2377.7 366.7 2380.61 349.19 2381.67 342.92L2345.7 342.92C2344.63 349.19 2341.72 366.7 2341.72 366.7L2326.64 366.7L2336.84 305.62L2351.92 305.62C2351.92 305.62 2349.19 321.92 2348.28 327.32L2384.26 327.32Z" />
	<path id="Path 6" class="shp2" d="M1386.72 142.2L1570.24 46.66L1731.56 46.66L2395.88 275.04L2172.63 275.04L1570.42 68.31L1426.19 142.17L1386.72 142.2Z" />
	<path id="Path 7" fill-rule="evenodd" class="shp0" d="M1722.88 419.27L1434.31 419.27C1431.74 433.78 1441.41 435.07 1459.14 435.07L1716.8 435.07L1707.77 486.34L1441.41 486.34C1381.11 486.34 1337.19 472.78 1351.45 391.87C1364.59 317.37 1418.84 303.85 1472.68 303.85L1658.07 303.85C1716.43 303.85 1742.55 334.15 1733.2 387.35C1730.94 399.6 1725.14 415.72 1722.88 419.27ZM1647.43 371.87C1650.01 357.37 1641.63 353.82 1623.9 353.82L1475.58 353.82C1454.31 353.82 1444.95 358.66 1442.7 371.87L1647.43 371.87Z" />
</svg>