<svg height="190" viewBox="0 0 240 190" width="240" xmlns="http://www.w3.org/2000/svg"><path d="m0 0h240v190h-240z" fill="#fff"/><g fill="#707173"><path d="m19.325 114.675v6.3h7.3v-6.3h2v15.1h-2v-7.1h-7.3v7.1h-2v-15.1z"/><path d="m38.825 122.675h-5.8v5.4h6.5v1.6h-8.5v-15h8.1v1.6h-6.2v4.8h5.8z"/><path d="m44.825 124.975-1.6 4.7h-2l5.1-15.1h2.3l5.1 15.1h-2.1l-1.6-4.7zm4.9-1.5-1.5-4.3c-.3-1-.6-1.9-.8-2.8a13.817 13.817 0 0 1 -.8 2.7l-1.5 4.4z"/><path d="m55.825 114.675h2v13.4h6.4v1.6h-8.4z"/><path d="m67.025 116.275h-4.6v-1.6h11.1v1.7h-4.6v13.4h-2z"/><path d="m77.225 114.675v6.3h7.3v-6.3h2v15.1h-2v-7.1h-7.3v7.1h-2v-15.1z"/><path d="m98.625 114.675v15.1h-2v-15.1z"/><path d="m104.725 116.275h-4.6v-1.6h11.1v1.7h-4.6v13.4h-2v-13.5z"/><path d="m118.525 127.375a6.818 6.818 0 0 0 3.5 1c2 0 3.2-1.1 3.2-2.6 0-1.4-.8-2.2-2.8-3-2.5-.9-4-2.2-4-4.3 0-2.3 1.9-4.1 4.9-4.1a7.535 7.535 0 0 1 3.3.7l-.5 1.6a5.547 5.547 0 0 0 -2.8-.7c-2.1 0-2.8 1.2-2.8 2.3 0 1.4.9 2.1 3 2.9 2.5 1 3.8 2.2 3.8 4.4 0 2.3-1.7 4.4-5.2 4.4a7.207 7.207 0 0 1 -3.8-1z"/><path d="m142.425 122.075c0 5.2-3.2 7.9-7 7.9-4 0-6.8-3.1-6.8-7.7 0-4.8 2.9-7.9 7-7.9s6.8 3.2 6.8 7.7zm-11.7.2c0 3.2 1.7 6.1 4.8 6.1s4.8-2.8 4.8-6.3c0-3-1.6-6.1-4.8-6.1s-4.8 3-4.8 6.3z"/><path d="m144.625 114.675h2v13.4h6.4v1.6h-8.4z"/><path d="m156.125 114.675v8.9c0 3.4 1.5 4.8 3.5 4.8 2.2 0 3.7-1.5 3.7-4.8v-8.9h2v8.8c0 4.6-2.4 6.5-5.7 6.5-3.1 0-5.4-1.7-5.4-6.4v-8.9z"/><path d="m171.325 116.275h-4.6v-1.6h11.1v1.7h-4.6v13.4h-2z"/><path d="m181.425 114.675v15.1h-2v-15.1z"/><path d="m197.325 122.075c0 5.2-3.1 7.9-7 7.9-4 0-6.8-3.1-6.8-7.7 0-4.8 2.9-7.9 7-7.9s6.8 3.2 6.8 7.7zm-11.7.2c0 3.2 1.7 6.1 4.8 6.1s4.8-2.8 4.8-6.3c0-3-1.6-6.1-4.8-6.1s-4.8 3-4.8 6.3z"/><path d="m199.625 129.775v-15.1h2.1l4.8 7.6a46.738 46.738 0 0 1 2.7 4.9h.1a60.182 60.182 0 0 1 -.2-6.2v-6.3h1.8v15.1h-2l-4.8-7.6a49.051 49.051 0 0 1 -2.8-5h-.1c.1 1.9.1 3.7.1 6.2v6.4z"/><path d="m213.825 127.375a6.818 6.818 0 0 0 3.5 1c2 0 3.1-1.1 3.1-2.6 0-1.4-.8-2.2-2.8-3-2.5-.9-4-2.2-4-4.3 0-2.3 1.9-4.1 4.9-4.1a7.535 7.535 0 0 1 3.3.7l-.5 1.6a5.547 5.547 0 0 0 -2.8-.7c-2.1 0-2.8 1.2-2.8 2.3 0 1.4.9 2.1 3 2.9 2.5 1 3.8 2.2 3.8 4.4 0 2.3-1.7 4.4-5.2 4.4a7.207 7.207 0 0 1 -3.8-1z"/></g><path d="m88.025 81.475c0 14.2-8 22.3-18.7 22.3-11.1 0-18-9.2-18-21.6 0-13.1 7.6-22.3 18.6-22.3 11.3.1 18.1 9.5 18.1 21.6zm-29.2.6c0 8.7 4 15.5 10.9 15.5s10.8-7 10.8-15.8c0-8-3.7-15.5-10.8-15.5-7.1-.1-10.9 7-10.9 15.8z" fill="#bd1220"/><path d="m124.825 103.175v-42.4h8.9l10.9 18.2a126.083 126.083 0 0 1 7.2 14.2h.1a172.61 172.61 0 0 1 -.7-17.6v-14.8h7.2v42.4h-8l-11.1-18.7a134 134 0 0 1 -7.5-14.6l-.3.1c.3 5.5.4 11.1.4 18v15.2z" fill="#bd1220"/><path d="m191.625 85.975h-16.9v10.8h16.9v6.4h-24.6v-42.4h24.6v6.4h-16.9v12.5h16.9z" fill="#bd1220"/><path d="m114.025 91.275c-1-4.1-2.8-7-5.9-8.2v-.2a11.487 11.487 0 0 0 4.1-19.2c-2.9-2.4-7-3.4-13.1-3.4-1.3 0-2.6 0-3.9.1v6.3a24.181 24.181 0 0 1 4.7-.4c5 0 8.2 2.2 8.2 6.8 0 4.2-3.2 7-8.4 7h-4.5v5.6h3.8c4.4.1 6.3 1.9 7.6 7.4a57.022 57.022 0 0 0 2.8 10h7.9c-.8-1.6-1.9-6.5-3.3-11.8z" fill="#bd1220"/><path d="m218.725 91.275c-1-4.1-2.8-7-5.9-8.2v-.2a11.487 11.487 0 0 0 4.1-19.2c-2.9-2.4-7-3.4-13.1-3.4-1.2 0-2.5 0-3.6.1v6.1a32.529 32.529 0 0 1 4.4-.3c5 0 8.2 2.2 8.2 6.8 0 4.2-3.2 7-8.4 7h-4.2v5.7h3.5c4.4.1 6.3 1.9 7.6 7.4a57.022 57.022 0 0 0 2.8 10h7.9c-.8-1.6-1.9-6.5-3.3-11.8z" fill="#bd1220"/><path d="m38.725 65.375c-3.9-3.3-9.3-4.9-17.2-4.9-1.4 0-2.8 0-4.1.1v6.3a25.923 25.923 0 0 1 4.8-.4c9.7 0 15.1 5.4 15 14.7 0 10.8-6 16.3-16 16.3-1.3 0-2.6 0-3.8-.1v6.2h2.3c8.2 0 15-1.9 19.2-5.8 4-3.6 6.6-9.2 6.6-16.9-.1-7.1-2.6-12.2-6.8-15.5z" fill="#bd1220"/></svg>