<svg xmlns="http://www.w3.org/2000/svg" xmlns:xlink="http://www.w3.org/1999/xlink" width="112" height="30" viewBox="0 0 112 30">
    <defs>
        <path id="a" d="M55.825 0a3.939 3.939 0 1 1 0 7.878 3.939 3.939 0 0 1 0-7.878zm0 5.96a2.021 2.021 0 1 0 0-4.042 2.021 2.021 0 0 0 0 4.042zm-1.011 23.77V11.818h2.021V29.73h-2.021zM0 29.73V11.818h2.02V29.73H0zm17.172-17.912h1.818V29.73H16.7l-6.195-14.98v14.98H8.687V11.818h2.424l6.06 14.523V11.818zM78.383 29.73V11.818h2.021V29.73h-2.021zm33.267-16.093h-6.397v5.724h5.925v1.818h-5.925v6.733h6.397v1.819h-8.35V11.819h8.35v1.818zm-16.095-1.819h2.088L92.996 29.73H90.64l-4.377-17.912h2.088l3.484 15.71 3.721-15.71zm-33.063 0h9.966v1.818h-3.973V29.73h-2.02V13.636h-3.973v-1.818zm-38.856 0h9.966v1.818H29.63V29.73h-2.02V13.636h-3.973v-1.818zm22.896 0h1.953v13.266C48.418 27.777 46.284 30 43.569 30c-2.715 0-4.849-2.223-4.916-4.916V11.818h2.021V25.11c.04 1.605 1.311 2.93 2.929 2.93 1.617 0 2.889-1.325 2.929-2.93V11.818z"/>
    </defs>
    <use fill="#FFF" fill-rule="evenodd" xlink:href="#a"/>
</svg>
