<svg xmlns="http://www.w3.org/2000/svg" viewBox="0 0 784 275" width="784" height="275">
	<defs>
		<clipPath clipPathUnits="userSpaceOnUse" id="cp1">
			<path d="M-92 -120L817 -120L817 1166L-92 1166L-92 -120Z" />
		</clipPath>
	</defs>
	<style>
		tspan { white-space:pre }
		.shp0 { fill: #231f20 } 
		.shp1 { fill: #ee1d23 } 
	</style>
	<g id="Clip-Path" clip-path="url(#cp1)">
		<g id="Layer">
			<path id="Layer" fill-rule="evenodd" class="shp0" d="M73.5 237.2C72.2 239.6 70.5 241.6 68.3 243.3C65.8 245.2 63 246.5 59.9 247.3C56.9 248.1 53 248.5 48.3 248.5L20.2 248.4L20.4 183.9L45.4 184C50.6 184 54.4 184.2 56.8 184.6C59.2 184.9 61.6 185.7 64 186.9C66.4 188.1 68.2 189.8 69.4 191.9C70.6 194 71.2 196.4 71.2 199.1C71.2 202.2 70.4 204.9 68.7 207.3C67.1 209.7 64.8 211.5 61.8 212.8L61.8 213.2C66 214 69.3 215.8 71.7 218.4C74.2 221 75.4 224.5 75.4 228.8C75.4 231.9 74.8 234.7 73.5 237.2ZM54.2 202.2C54.2 201.2 53.9 200.1 53.4 199C52.9 198 51.9 197.2 50.6 196.6C49.4 196.2 47.9 195.9 46.1 195.9C44.3 195.8 41.8 195.8 38.6 195.8L37 195.8L37 209.4L39.6 209.4C42.2 209.5 44.4 209.4 46.2 209.3C48 209.3 49.5 209 50.6 208.5C52 207.8 53 207 53.5 205.9C53.9 204.9 54.2 203.6 54.2 202.2ZM56.9 223.7C56.2 222.6 54.8 221.8 52.9 221.2C51.7 220.8 49.9 220.6 47.6 220.6C45.4 220.6 43 220.5 40.5 220.5L36.9 220.5L36.9 236.7L38.1 236.7C42.7 236.7 46 236.7 48.1 236.6C50 236.6 51.9 236.3 53.6 235.5C55.3 234.8 56.5 233.8 57.1 232.7C57.8 231.4 58.1 230.1 58.1 228.5C58.1 226.4 57.7 224.9 56.9 223.7ZM165.6 248.8L150 248.8L150 243.4C147.1 245.6 144.5 247.2 142.1 248.4C139.7 249.5 136.8 250.1 133.5 250C128.2 250 124 248.5 121.2 245.4C118.3 242.3 116.8 237.7 116.8 231.7L116.9 200.1L132.5 200.1L132.5 224.2C132.5 226.7 132.5 228.7 132.7 230.3C132.8 232 133.2 233.3 133.8 234.4C134.3 235.4 135.2 236.2 136.3 236.7C137.4 237.2 138.9 237.5 140.9 237.5C142.2 237.5 143.7 237.2 145.3 236.7C146.9 236.3 148.5 235.5 150 234.6L150.1 200.2L165.7 200.2L165.6 248.8ZM246.1 245.7C241.6 248.8 235.4 250.3 227.6 250.3C223.3 250.3 219.3 249.9 215.8 249.1C212.3 248.2 209.5 247.3 207.4 246.4L207.4 233.6L208.8 233.6C209.6 234.1 210.5 234.7 211.5 235.4C212.5 236 214 236.7 215.8 237.5C217.5 238.1 219.3 238.7 221.3 239.2C223.4 239.7 225.6 239.9 227.9 239.9C231 239.9 233.2 239.6 234.7 238.9C236.2 238.2 236.9 237.2 236.9 235.9C236.9 234.7 236.5 233.9 235.6 233.3C234.8 232.8 233.1 232.3 230.7 231.8C229.5 231.5 228 231.2 226 230.9C224 230.6 222.2 230.3 220.6 229.8C216.2 228.7 212.9 226.8 210.8 224.4C208.7 222 207.6 218.9 207.6 215.3C207.6 210.6 209.9 206.7 214.3 203.7C218.7 200.6 224.8 199 232.5 199.1C236.1 199.1 239.6 199.4 242.9 200.2C246.3 200.9 248.9 201.7 250.7 202.6L250.7 214.9L249.4 214.9C247.1 213.3 244.4 212 241.5 211C238.5 209.9 235.5 209.4 232.5 209.4C230 209.4 227.9 209.8 226.2 210.4C224.4 211.1 223.6 212.1 223.6 213.4C223.6 214.5 224 215.4 224.7 216C225.5 216.6 227.4 217.2 230.2 217.9C231.8 218.2 233.5 218.5 235.4 218.8C237.2 219.1 239 219.5 240.9 220C245 221 248 222.7 250 225C251.9 227.3 252.9 230.2 252.9 233.6C252.9 238.6 250.6 242.7 246.1 245.7ZM324.7 248.8C323 249.2 321.2 249.6 319.3 249.8C317.5 250.1 315.2 250.2 312.4 250.2C306.4 250.1 301.8 248.9 298.9 246.5C295.9 244 294.5 239.8 294.5 233.8L294.5 211.1L288.2 211.1L288.2 200.5L294.6 200.5L294.6 186.6L310.2 186.7L310.2 200.6L324.8 200.6L324.8 211.2L310.1 211.1C310.1 212.8 310.1 231.6 310.1 232.9C310.2 234.2 310.4 235.3 310.8 236.3C311.2 237.3 311.9 238.1 313 238.7C314 239.3 315.5 239.6 317.4 239.6C318.3 239.6 319.3 239.5 320.6 239.1C322 238.8 322.9 238.4 323.4 238.1L324.7 238.1L324.7 248.8ZM414.1 225.2C414 233.2 411.7 239.5 407 244C402.3 248.6 395.8 250.9 387.3 250.9C378.9 250.9 372.4 248.6 367.7 243.9C363.1 239.3 360.8 233 360.8 225C360.8 217 363.2 210.7 367.9 206.1C372.6 201.5 379.1 199.3 387.5 199.3C396 199.3 402.5 201.6 407.2 206.3C411.8 210.9 414.1 217.2 414.1 225.2ZM397.2 232.4C397.7 230.7 397.9 228.3 397.9 225.2C397.9 222.4 397.7 220 397.2 218.1C396.6 216.1 395.9 214.6 395 213.5C394.1 212.3 393 211.4 391.7 210.9C390.4 210.5 389 210.2 387.5 210.2C386 210.2 384.6 210.4 383.4 210.8C382.3 211.2 381.1 212 380.1 213.2C379.1 214.3 378.3 215.8 377.8 217.8C377.2 219.8 376.9 222.2 376.9 225.2C376.9 227.8 377.1 230.1 377.6 232.1C378.1 234 378.8 235.5 379.8 236.7C380.7 237.9 381.8 238.7 383.1 239.2C384.4 239.7 385.9 240 387.5 240C388.9 240 390.3 239.8 391.6 239.3C392.9 238.8 394 238 394.8 236.9C395.9 235.7 396.6 234.2 397.2 232.4ZM503.9 249.7L488.2 249.7L488.3 244.3C485.4 246.5 482.7 248.1 480.3 249.3C478 250.4 475.1 251 471.8 250.9C466.4 250.9 462.3 249.4 459.4 246.3C456.6 243.2 455.1 238.6 455.1 232.6L455.2 201L470.8 201L470.8 225.1C470.7 227.6 470.8 229.6 471 231.2C471.1 232.9 471.5 234.2 472.1 235.3C472.6 236.3 473.4 237.1 474.5 237.6C475.7 238.1 477.2 238.4 479.2 238.4C480.5 238.4 482 238.1 483.6 237.6C485.2 237.2 486.8 236.4 488.3 235.5L488.4 201.1L504 201.1L503.9 249.7ZM584.2 216.2L582.8 216.2C582.2 216 581.1 215.8 579.6 215.7C578.2 215.6 576.9 215.5 576 215.5C573.7 215.5 571.8 215.6 570.1 215.9C568.4 216.2 566.6 216.7 564.6 217.4L564.5 249.9L548.9 249.8L549 201.2L564.6 201.3L564.6 208.4C568.1 205.5 571 203.5 573.6 202.6C576.1 201.6 578.5 201.1 580.6 201.1C581.1 201.1 581.7 201.1 582.4 201.2C583.1 201.2 583.7 201.3 584.2 201.3L584.2 216.2ZM671.2 228.8L635.6 228.7C635.8 232.5 637.3 235.4 639.9 237.5C642.6 239.5 646.5 240.5 651.7 240.5C655 240.5 658.2 239.9 661.3 238.7C664.4 237.5 666.8 236.3 668.6 234.9L670.3 234.9L670.3 247.4C666.8 248.8 663.4 249.9 660.3 250.5C657.2 251.1 653.7 251.4 650 251.4C640.2 251.4 632.7 249.2 627.6 244.8C622.4 240.4 619.8 234.1 619.8 226C619.8 218 622.3 211.6 627.2 207C632.2 202.3 638.9 200 647.5 200C655.4 200 661.3 202 665.3 206C669.3 210 671.3 215.8 671.2 223.3L671.2 228.8ZM655.7 219.6C655.7 216.3 654.9 213.9 653.3 212.2C651.8 210.6 649.4 209.7 646.2 209.7C643.2 209.7 640.8 210.5 638.8 212C636.9 213.6 635.8 216.1 635.6 219.5L655.7 219.6ZM761.3 250.4L745.6 250.3L745.7 226.3C745.7 224.3 745.6 222.3 745.4 220.4C745.2 218.4 744.9 217 744.4 216.1C743.8 215 743 214.2 741.9 213.7C740.8 213.2 739.2 213 737.2 213C735.8 213 734.4 213.2 732.9 213.7C731.5 214.1 729.9 214.9 728.2 215.9L728.1 250.3L712.5 250.3L712.6 201.7L728.2 201.7L728.2 207.1C731 204.9 733.6 203.3 736.2 202.1C738.7 201 741.6 200.4 744.7 200.4C749.9 200.4 754 202 757 205C759.9 208.1 761.4 212.7 761.3 218.8L761.3 250.4Z" />
			<path id="Layer" fill-rule="evenodd" class="shp0" d="M604.9 109.2L607.8 109.6C613.8 110.4 622.4 111.9 627.2 115.9C631.6 119.6 633.1 125.2 633.1 130.7C633.1 137.3 630.6 142.9 625.1 146.6C619.3 150.6 611.3 151.6 604.4 151.6C600.6 151.6 596.8 151.3 593.1 150.7C589.1 150.1 585.1 149.2 581.2 148.1L578.2 147.3L578.2 125.1L584 127.9C587 129.4 590.2 130.5 593.4 131.3C596.7 132 599.9 132.4 603.2 132.4C604.8 132.4 607.3 132.3 608.7 131.5C608.8 131.5 609 131.3 609.1 131.3C609.1 131.2 609.1 131.1 609.1 131C608.1 130.4 605.1 130.1 604.1 129.9L601.1 129.6C595.3 128.8 588 127.3 583.4 123.5C579 119.8 577.4 114.4 577.4 108.8C577.4 102.6 579.6 96.9 584.8 93.2C590.4 89.3 598.1 88.4 604.7 88.4C608.1 88.4 611.6 88.7 615 89.2C618.9 89.7 622.7 90.5 626.5 91.5L629.6 92.2L629.6 114.1L624 111.8C620.8 110.5 617.6 109.4 614.3 108.6C611.5 108 608.6 107.6 605.7 107.6C604.3 107.6 601.8 107.7 600.5 108.3C601.6 108.8 603.9 109.1 604.9 109.2ZM592.4 36.5L579.2 80.2L560.4 74L569 30.7L592.4 36.5ZM411.7 65.2L411.7 145L378.1 145L378.1 65.2C360.2 65.2 342.2 65.2 324.2 65.2L324.2 145L290.6 145L290.6 65.2L257.7 65.2L257.7 37.9C317.3 37.9 385 37.9 444.6 37.9L444.6 65.2L411.7 65.2ZM236.9 43.4C250.7 52.3 258.3 66.7 262.4 82.2C266.5 97.6 267.1 113.9 259.6 128.4C252.4 142.5 239.9 150.5 224.8 154.5C209.8 158.6 194.8 157.8 181.6 149.2C167.9 140.4 160.2 126 156.1 110.5C152 95.1 151.4 78.8 158.9 64.3C166.1 50.2 178.6 42.1 193.7 38.1C208.7 34.1 223.7 34.8 236.9 43.4ZM188.7 76.7C186 84.5 187.3 93.9 189.4 101.7C191.5 109.4 195 118.2 201.2 123.6C206.1 127.8 211.3 128.9 217.5 127.2C223.7 125.6 227.8 122 229.9 116C232.6 108.2 231.2 98.8 229.2 91C227.1 83.3 223.6 74.4 217.4 69C212.5 64.8 207.2 63.8 201 65.4C194.8 67.1 190.8 70.7 188.7 76.7ZM525.7 43.4C539.5 52.3 547 66.7 551.2 82.1C555.3 97.5 555.9 113.8 548.5 128.3C541.3 142.4 528.7 150.5 513.6 154.5C498.6 158.6 483.7 157.8 470.4 149.3C456.7 140.4 449.1 126 444.9 110.6C440.8 95.2 440.2 78.8 447.7 64.3C454.9 50.2 467.4 42.1 482.5 38.1C497.5 34.1 512.5 34.8 525.7 43.4ZM489.8 65.4C483.6 67.1 479.6 70.7 477.5 76.7C474.7 84.5 476.1 93.9 478.2 101.7C480.3 109.4 483.8 118.2 490 123.6C494.9 127.8 500.2 128.9 506.3 127.2C512.5 125.6 516.6 122 518.7 115.9C521.4 108.2 520 98.8 518 91C515.9 83.2 512.4 74.4 506.1 69C501.3 64.8 495.9 63.8 489.8 65.4Z" />
			<path id="Layer" fill-rule="evenodd" class="shp0" d="M600.2 102.7L603.1 103.1C609.2 103.9 617.8 105.4 622.5 109.4C627 113.1 628.4 118.6 628.4 124.2C628.4 130.8 626 136.4 620.5 140.1C614.6 144.1 606.7 145 599.8 145C596 145 592.2 144.7 588.4 144.2C584.4 143.6 580.4 142.7 576.5 141.6L573.6 140.8L573.6 118.6L579.4 121.4C582.4 122.9 585.5 124 588.8 124.8C592 125.5 595.3 125.9 598.6 125.9C600.1 125.9 602.7 125.8 604.1 125C604.1 125 604.4 124.8 604.4 124.7C604.5 124.7 604.5 124.6 604.5 124.5L604.5 124.4C603.4 123.9 600.5 123.5 599.5 123.4L596.5 123C590.7 122.3 583.3 120.8 578.7 116.9C574.3 113.2 572.8 107.9 572.8 102.3C572.8 96 574.9 90.4 580.2 86.7C585.7 82.8 593.4 81.9 600 81.9C603.5 81.9 606.9 82.2 610.3 82.7C614.2 83.2 618.1 84 621.9 84.9L624.9 85.7L624.9 107.6L619.3 105.3C616.2 104 612.9 102.9 609.6 102.1C606.8 101.5 603.9 101.1 601 101.1C599.6 101.1 597.2 101.2 595.8 101.8C597 102.3 599.2 102.5 600.2 102.7ZM587.8 30L574.6 73.7L555.8 67.5L564.3 24.2L587.8 30ZM407.1 58.7L407.1 138.5L373.5 138.5L373.5 58.7C355.5 58.7 337.5 58.7 319.6 58.7L319.6 138.5L286 138.5L286 58.7L253.1 58.7L253.1 31.3C312.7 31.3 380.3 31.3 439.9 31.3L439.9 58.7L407.1 58.7ZM189 31.6C204.1 27.6 219.1 28.3 232.3 36.9C246 45.8 253.6 60.2 257.7 75.6C261.8 91 262.5 107.3 255 121.9C247.8 135.9 235.2 144 220.1 148C205.1 152 190.2 151.3 176.9 142.7C163.2 133.9 155.6 119.5 151.5 104C147.3 88.6 146.7 72.3 154.2 57.7C161.5 43.7 174 35.6 189 31.6ZM196.3 58.9C190.2 60.6 186.1 64.1 184 70.2C181.3 77.9 182.7 87.4 184.7 95.1C186.8 102.9 190.3 111.7 196.5 117.1C201.4 121.3 206.7 122.4 212.8 120.7C219 119.1 223.1 115.5 225.2 109.4C228 101.7 226.6 92.3 224.5 84.5C222.4 76.7 218.9 67.9 212.7 62.5C207.8 58.3 202.5 57.3 196.3 58.9ZM521 36.9C534.8 45.7 542.4 60.2 546.5 75.6C550.6 91 551.3 107.3 543.8 121.8C536.6 135.9 524 144 509 148C494 152 479 151.3 465.8 142.7C452 133.9 444.4 119.5 440.3 104.1C436.1 88.6 435.5 72.3 443 57.8C450.2 43.7 462.7 35.6 477.8 31.6C492.8 27.6 507.8 28.3 521 36.9ZM485.1 58.9C479 60.6 474.9 64.2 472.8 70.2C470.1 78 471.5 87.4 473.6 95.1C475.6 102.9 479.1 111.7 485.4 117.1C490.2 121.3 495.5 122.3 501.7 120.7C507.8 119 511.9 115.5 514.1 109.4C516.8 101.6 515.4 92.3 513.3 84.5C511.2 76.7 507.7 67.9 501.5 62.5C496.6 58.3 491.3 57.3 485.1 58.9Z" />
			<path id="Layer" fill-rule="evenodd" class="shp1" d="M620.9 88.8L620.9 101.6C617.3 100.1 613.8 99 610.5 98.2C607.1 97.5 604 97.1 601 97.1C597.8 97.1 595.5 97.5 593.9 98.3C592.4 99.1 591.6 100.3 591.6 102C591.6 103.3 592.2 104.3 593.4 105.1C594.5 105.8 596.6 106.3 599.7 106.6L602.6 107.1C611.2 108.2 617 109.9 620 112.5C622.9 115 624.4 118.9 624.4 124.2C624.4 129.8 622.3 134 618.2 136.8C614.1 139.6 607.9 141 599.8 141C596.3 141 592.7 140.8 589 140.2C585.3 139.7 581.5 138.8 577.6 137.8L577.6 125C580.9 126.6 584.4 127.9 587.9 128.7C591.4 129.5 595 129.9 598.6 129.9C601.9 129.9 604.3 129.4 606 128.5C607.6 127.6 608.5 126.3 608.5 124.5C608.5 123 607.9 121.9 606.8 121.1C605.6 120.4 603.4 119.8 600 119.4L597 119.1C589.5 118.1 584.3 116.4 581.3 113.9C578.3 111.3 576.8 107.5 576.8 102.3C576.8 96.8 578.7 92.7 582.5 90C586.3 87.3 592.2 85.9 600 85.9C603.1 85.9 606.4 86.2 609.8 86.6C613.2 87.1 616.9 87.8 620.9 88.8L620.9 88.8Z" />
			<path id="Layer" fill-rule="evenodd" class="shp1" d="M582.7 32.9L571.9 68.6L560.4 64.8L567.4 29.1L582.7 32.9Z" />
			<path id="Layer" fill-rule="evenodd" class="shp1" d="M435.9 35.3L435.9 54.7L403 54.7L403 134.4L377.5 134.4L377.5 54.7C356.8 54.7 336.2 54.7 315.6 54.7L315.6 134.4L290 134.4L290 54.7L257.1 54.7L257.1 35.3C316.7 35.3 376.3 35.3 435.9 35.3L435.9 35.3Z" />
			<path id="Layer" fill-rule="evenodd" class="shp1" d="M190.1 35.5C205.5 31.4 218.8 32.9 230.1 40.3C241.4 47.6 249.3 59.7 253.9 76.7C258.4 93.6 257.6 108.1 251.4 120C245.3 132 234.5 140 219.1 144.1C203.8 148.2 190.4 146.7 179.1 139.3C167.8 132 159.9 119.9 155.3 103C150.8 86 151.6 71.5 157.8 59.6C164 47.6 174.7 39.6 190.1 35.5ZM180.2 68.8C177.7 76 177.9 85.1 180.9 96.2C183.8 107.2 188.2 115.2 193.9 120.1C199.7 125.1 206.4 126.6 213.9 124.6C221.5 122.6 226.5 118 229 110.8C231.5 103.6 231.3 94.5 228.4 83.5C225.4 72.4 221.1 64.4 215.3 59.5C209.5 54.5 202.9 53 195.3 55C187.8 57 182.8 61.6 180.2 68.8Z" />
			<path id="Layer" fill-rule="evenodd" class="shp1" d="M518.9 40.2C530.2 47.5 538.1 59.7 542.6 76.6C547.2 93.6 546.4 108 540.2 120C534.1 132 523.3 140 508 144.1C492.6 148.2 479.3 146.7 467.9 139.4C456.6 132.1 448.7 120 444.2 103C439.6 86 440.4 71.6 446.6 59.6C452.7 47.6 463.5 39.6 478.8 35.5C494.2 31.4 507.6 32.9 518.9 40.2ZM469 68.9C466.5 76 466.7 85.1 469.7 96.2C472.6 107.2 477 115.2 482.8 120.1C488.5 125.1 495.2 126.6 502.7 124.6C510.3 122.5 515.3 117.9 517.8 110.7C520.3 103.6 520.1 94.5 517.2 83.5C514.2 72.4 509.9 64.4 504.1 59.5C498.3 54.5 491.7 53 484.1 55C476.5 57.1 471.5 61.7 469 68.9Z" />
		</g>
	</g>
</svg>